<?xml version="1.0" encoding="utf-8"?>
<!-- Generator: Adobe Illustrator 25.4.1, SVG Export Plug-In . SVG Version: 6.00 Build 0)  -->
<svg version="1.1" id="Lager_1" xmlns="http://www.w3.org/2000/svg" xmlns:xlink="http://www.w3.org/1999/xlink" x="0px" y="0px"
	 viewBox="0 0 1920 580" style="enable-background:new 0 0 1920 580;" xml:space="preserve">
<style type="text/css">
	.st0{
		fill:#191919;
		transform: translateY(-37.2%);
	
	}
</style>
<path class="st0" d="M1845.6,794.9c0,0-7.1-0.5-20.5-1.4c-11.6-0.7-27.9-1.8-48.4-2.9V683.5l0.4-0.6v-0.8h-0.9v-0.7l-5.8-30.4v-2.7
	h-1.8l-3.2-28.1c0,0,0-0.1-0.1-0.3l-0.1-3.3c0-0.1-0.1-0.1-0.1-0.1c-0.1,0-0.1,0.1-0.1,0.1l-0.1,3.3c-0.1,0.1-0.1,0.3-0.1,0.3
	l-3.6,30.7h-22.9v-1.6c0,0,0-0.2-0.2-0.3c0,0-0.2-0.1-0.2-0.4l-0.1-0.4c0.1-0.1,0.2-0.2,0.2-0.3c0-0.2-0.2-0.3-0.4-0.4
	c0-0.2-0.1-0.5-0.2-0.5c-0.1,0-0.2,0.3-0.2,0.5c-0.2,0.1-0.4,0.2-0.4,0.4c0,0.1,0.1,0.3,0.2,0.3l-0.1,0.4c0,0.2-0.2,0.4-0.2,0.4
	c-0.2,0.1-0.2,0.3-0.2,0.3v1.6h-0.4c0,0,0.9-2-1-3.3c-1.9-1.3-2.7-2.1-2.7-3.3c0,0,0.5-0.1,0.5-0.8c0-0.7-1.5-0.3-1.5-1.2V640l1-1.3
	v-1.1h-1.1c0,0,0.2-0.8-0.7-0.8c0,0,0.1-2-1.6-3.5c-1.7-1.5-1.6-2-1.6-3.2v-1.3h0.3c0,0.2,0.2,0.3,0.4,0.3c0.2,0,0.5-0.2,0.5-0.5
	c0-0.2-0.2-0.5-0.5-0.5c-0.2,0-0.4,0.1-0.4,0.3h-0.4l0-0.1v-1.1c0.1-0.1,0.2-0.2,0.2-0.4c0-0.3-0.2-0.6-0.6-0.6s-0.6,0.2-0.6,0.6
	c0,0.2,0.1,0.3,0.2,0.4v1.1l0,0.1h-0.4c-0.1-0.2-0.2-0.3-0.4-0.3c-0.2,0-0.4,0.2-0.4,0.5c0,0.2,0.2,0.5,0.4,0.5
	c0.2,0,0.4-0.1,0.4-0.3h0.3v1.3c0,1.2,0,1.7-1.6,3.2c-1.7,1.5-1.6,3.5-1.6,3.5c-0.8,0.1-0.6,0.8-0.6,0.8h-1.1v1.1l1,1.3v2.3
	c0,0.9-1.5,0.4-1.5,1.2c0,0.7,0.5,0.8,0.5,0.8c0,1.2-0.7,2.1-2.7,3.3c-1.9,1.3-1,3.3-1,3.3h-0.4v-1.6c0,0,0-0.2-0.2-0.3
	c0,0-0.2-0.1-0.2-0.4l-0.1-0.4c0.1-0.1,0.2-0.2,0.2-0.3c0-0.2-0.2-0.3-0.4-0.4c0-0.2-0.1-0.5-0.2-0.5c-0.1,0-0.2,0.3-0.2,0.5
	c-0.2,0.1-0.4,0.2-0.4,0.4c0,0.1,0.1,0.3,0.2,0.3l-0.1,0.4c0,0.2-0.2,0.4-0.2,0.4c-0.2,0.1-0.2,0.3-0.2,0.3v1.6h-15.1v-2.7h-2.1v2.7
	l-5.8,30.4v0.7h-0.9v0.8l0.4,0.6v72.2l-5.7-6.5h-5.7v-49.9c0-2.4,1.7-2.6,1.7-2.6c1.8,0,1.7-1.4,1.7-1.4v-1.5c0-0.4-0.7-0.4-0.7-0.4
	h-1.6V691c0-0.7-0.9-0.7-0.9-0.7h-3.7v-7.6l0.8-0.7c0,0-2.7-0.8-2.7-3.6c0-2.8-1-5.3-3.7-7c0,0-0.5-0.4-0.5-1.1v-2.7h0.5
	c0,0-0.9-1-1-1.8c0-0.7-0.6-2.3-2.3-2.4V659h2v-0.5h-2V656h-0.5v2.5h-2v0.5h2v4.5c-1.7,0.1-2.3,1.7-2.3,2.4c0,0.8-1,1.8-1,1.8h0.5
	v2.7c0,0.7-0.5,1.1-0.5,1.1c-2.7,1.6-3.7,4.2-3.7,7c0,0.4,0,0.7-0.1,1c0-1.3-0.4-4.6-4.4-4.6v-3c0,0-5.3-1.4-6.9-7.8
	c-1.5-6.4-4-10.6-9.2-10.6v-6c0,0-5.1-0.1-5.1-6.9h-1.5c0,0,0.7-8.2-7.8-8.2c-8.5,0-7.8,8.2-7.8,8.2h-1.5c0,6.8-5.1,6.9-5.1,6.9v6
	c-5.2,0-7.6,4.2-9.2,10.6c-0.2,0.8-0.4,1.5-0.7,2.1V636c0-1,1.3-1.1,1.3-1.1v-2.6h-1.3v-5.5l-1-0.8v-4.6c0-1.4-0.8-1.5-0.8-1.5
	c0-1.6-0.9-2.6-0.9-2.6v-11.8l0.7-1.1v-0.7h-1.1v-1.7c0,0,0.5-0.7-0.8-1.6c0,0,0.4-3.9-1.2-4.7c-1.4-0.6-2.9-2.7-5.6-3v-4.2
	c0,0,0.4-0.7,0-1.3c-0.4-0.5-0.7-2.7-2.5-2.9h0c0,0,0,0,0,0c0-0.1-0.1-0.2-0.2-0.3v-2.9h1.3c0.1,0,0.2-0.1,0.2-0.2s-0.1-0.2-0.2-0.2
	h-1.3v-1.4c0-0.1-0.1-0.2-0.2-0.2c-0.1,0-0.2,0.1-0.2,0.2v1.4h-1.3c-0.1,0-0.2,0.1-0.2,0.2s0.1,0.2,0.2,0.2h1.3v2.9
	c-0.1,0.1-0.2,0.2-0.2,0.3c0,0,0,0,0,0c-1.8,0.3-2.1,2.4-2.5,2.9c-0.4,0.6,0,1.3,0,1.3v4.2c-2.7,0.4-4.2,2.4-5.6,3
	c-1.6,0.7-1.2,4.7-1.2,4.7c-1.3,0.9-0.8,1.6-0.8,1.6v1.7h-1.1v0.7l0.7,1.1V616c-1.1-0.8-1.3-1.1-1.3-2c0,1.1-0.2,1.2-2.1,2.6
	c-1.9,1.3-1,3-1,3c-1.2,0-1.1,0.9-1.1,0.9v12.8c-1.2,0-1.1,0.8-1.1,0.8c0,1.6,0.8,1.7,0.8,1.7v54.4h-0.8c0,0-0.9,0-0.9,0.7v2.4h-1.6
	c0,0-0.7,0-0.7,0.4v1.5c0,0-0.1,1.4,1.7,1.4c0,0,1.7,0.2,1.7,2.6v49.9h-5.7l-3.6,4.1V482.7h-59.3v120.9l-26,13.7v47.6l-41.1-6.1
	v118.6c-1.5,0-3-0.1-4.5-0.1V524.9h-9.1v-6.8l9.1-2.3v-3.3h-68.1v3.3l9.1,2.3v6.8h-9.1v250.7c-1,0-2.1,0-3.1-0.1v-35.7h-0.4v-53.7
	l0.8-1.7v-1.6l-14.9-43h-0.2l-0.3-5.5c0-0.2-0.2-0.3-0.4-0.3c-0.2,0-0.3,0.2-0.3,0.3l-0.3,5.5h-57.2v-39.2l1.8-10h2.8v-1.5h-2.8
	v-5.9h-3.9v-29h1.4l-5.3-20l-10.4-14.7l-0.1-2.2c0.2-0.1,0.3-0.3,0.3-0.5c0-0.2-0.1-0.4-0.3-0.5l-0.1-2.6c0-0.1-0.1-0.1-0.1-0.1
	c-0.1,0-0.1,0.1-0.1,0.1l-0.1,2.6c-0.2,0.1-0.3,0.3-0.3,0.5c0,0.2,0.1,0.4,0.3,0.5l-0.1,2.2l-10.4,14.7l-5.3,20h1.4v29h-3.9v5.9
	h-2.8v1.5h2.8l1.8,10v39.2h-39.2l-0.3-5.5c0-0.2-0.1-0.3-0.3-0.3c-0.2,0-0.4,0.1-0.4,0.3l-0.3,5.5h-0.2l-14.9,43v1.6l0.8,1.7v53.7
	h-0.4v33c-0.7,0-1.3,0-2,0V755l-0.7-1.3v-84.5l1.6-1.6v-2l2.4-1.7v-0.5c-3.4,0-4.7-3.7-4.7-3.7s4.9-6.7-1.8-10.4
	c0,0,0.3-4.1-2.5-4.3c-2.8-0.2-2-4.3-2-5.7l1.1-2.6l-1-1c0,0,2.1-2.5-0.6-4.5v-1.2c0,0-1.7-0.9-1.7-2.1v-2.7l0.5-1.2h-0.6v-2.7
	l0.8-1.4v-0.7h-0.9c0,0-0.4-5.6-5.2-7.2c0.3-0.7,1-2.6-0.5-3.3c0,0,0.3-0.9-0.8-2.1c-1.1-1.2,0-2.6,0-2.6h-0.8c0,0-0.3-2.8,1-4
	c0,0-1.6-2.3-1.6-8.5c0,6.2-1.6,8.5-1.6,8.5c1.2,1.2,1,4,1,4h-0.8c0,0,1.1,1.4,0,2.6c-1.1,1.2-0.8,2.1-0.8,2.1
	c-1.5,0.7-0.8,2.6-0.5,3.3c-4.7,1.6-5.2,7.2-5.2,7.2h-0.9v0.7l0.8,1.4v2.7h-0.6l0.5,1.2v2.7c0,1.1-1.7,2.1-1.7,2.1v1.2
	c-2.7,2-0.6,4.5-0.6,4.5l-1,1l1.1,2.5h-112.9l1.1-2.5l-1-1c0,0,2.1-2.5-0.6-4.5v-1.2c0,0-1.7-0.9-1.7-2.1v-2.7l0.5-1.2h-0.6v-2.7
	l0.8-1.4v-0.7h-0.9c0,0-0.4-5.6-5.2-7.2c0.3-0.7,1-2.6-0.5-3.3c0,0,0.3-0.9-0.8-2.1c-1.1-1.2,0-2.6,0-2.6h-0.8c0,0-0.3-2.8,1-4
	c0,0-1.6-2.3-1.6-8.5c0,6.2-1.6,8.5-1.6,8.5c1.2,1.2,1,4,1,4h-0.8c0,0,1.1,1.4,0,2.6c-1.1,1.2-0.8,2.1-0.8,2.1
	c-1.5,0.7-0.8,2.6-0.4,3.3c-4.8,1.5-5.2,7.2-5.2,7.2h-0.9v0.7l0.8,1.4v2.7h-0.6l0.5,1.2v2.7c0,1.1-1.7,2.1-1.7,2.1v1.2
	c-2.7,2-0.6,4.5-0.6,4.5l-1,1l1.1,2.5h-7.2v-1.7l0.7-1.6l-1.5-1.4v-13.4l0.7-0.8v-2.6c0,0,3.1-6.4-3.3-8.3v-1.9c0,0,0.5-2.6-1.5-2.6
	c-2,0-5.8-1.1-5.8-5.6v-1.9l1.6-1.4V595l1.6-2l-4.7-2.9c0,0-0.1,0-0.2-0.1c1.5-1.8,2.4-4.2,2.4-6.7c0-4.7-3-8.7-7.2-10.1
	c0,0,0.2-1.4-0.8-2c-1-0.7-1.2-1.4-1.1-2.3h-0.8c0,0,0.1-1.2,1.2-2.4c0,0-1.4-2.1-1.4-4.7v-6.6h0.5c0.2,0,0.3,0.1,0.3,0.3v1.6
	c0.4-0.3,1-1.1,1-2.4c0-1.3-0.6-2.1-1-2.4v1.6c0,0.2-0.1,0.3-0.3,0.3h-0.5V553c0,0,0-0.6,0.2-1.1v-0.2c0-0.1,0.1-0.2,0.1-0.3
	c0,0,0.1,0,0.1-0.1c0.1-0.1,0.1-0.2,0.2-0.2c0,0-1.2-1.8-1.2-5.5c0,3.7-1.2,5.5-1.2,5.5c0.6,0.6,0.7,1.9,0.7,1.9v1.4
	c-0.1,0-0.2,0-0.2,0c-0.1,0-0.3,0-0.4,0c-0.1,0-0.3,0-0.4-0.2c-0.1-0.1-0.3-0.3-0.4-0.3c-0.1,0-0.3,0.1-0.4,0.3
	c-0.3,0.2-0.5,0.3-0.8,0.3c-0.1,0-0.1,0.1-0.1,0.1c0,0.1,0,0.2,0.1,0.2c0.3,0,0.5,0.1,0.8,0.3c0.1,0.1,0.2,0.3,0.4,0.3
	c0.1,0,0.2-0.1,0.4-0.3c0.1-0.1,0.3-0.1,0.4-0.2c0.1,0,0.2,0,0.4,0c0.1,0,0.2,0,0.2,0v3.5h-2.2v-0.2c0-0.2-0.1-0.3-0.3-0.3
	c-0.2,0-0.3,0.1-0.3,0.3v0.2h-0.3c-0.2,0-0.3,0.1-0.3,0.3c0,0.2,0.1,0.3,0.3,0.3h0.2l-0.8,2.7h0c-0.1,0-0.2,0-0.2,0.1
	c-0.1,0.1-0.1,0.1-0.1,0.2c0,0.5,0.4,1.5,1.6,1.5c1.2,0,1.6-1,1.6-1.5c0-0.1,0-0.2-0.1-0.2c-0.1-0.1-0.1-0.1-0.2-0.1h0l-0.8-2.7h2.1
	v2.7c0,2.6-1.4,4.7-1.4,4.7c1.1,1.2,1.2,2.4,1.2,2.4h-0.8c0.1,0.9-0.2,1.6-1.1,2.3c-1,0.7-0.8,2-0.8,2c-4.2,1.4-7.2,5.4-7.2,10.1
	c0,2.5,0.9,4.9,2.4,6.7c-0.1,0.1-0.2,0.1-0.2,0.1l-4.7,2.9l1.6,2v1.2l1.6,1.4v1.9c0,4.4-3.8,5.6-5.8,5.6c-2,0-1.5,2.6-1.5,2.6v1.9
	c-6.3,1.9-3.3,8.3-3.3,8.3v2.6l0.7,0.8v13.4l-1.5,1.4l0.7,1.6v1.7h-7.2l1.1-2.5l-1-1c0,0,2.1-2.5-0.6-4.5v-1.2c0,0-1.7-0.9-1.7-2.1
	v-2.7l0.6-1.2h-0.6v-2.7l0.8-1.4v-0.7h-0.9c0,0-0.4-5.6-5.2-7.2c0.3-0.5,1.1-2.5-0.4-3.3c0,0,0.3-0.9-0.8-2.1c-1.1-1.2,0-2.6,0-2.6
	h-0.8c0,0-0.3-2.8,1-4c0,0-1.6-2.3-1.6-8.5c0,6.2-1.6,8.5-1.6,8.5c1.2,1.2,1,4,1,4h-0.8c0,0,1.1,1.4,0,2.6c-1.1,1.2-0.8,2.1-0.8,2.1
	c-1.5,0.7-0.8,2.7-0.4,3.3c-4.7,1.6-5.2,7.2-5.2,7.2h-0.9v0.7l0.8,1.4v2.7H960l0.5,1.2v2.7c0,1.1-1.7,2.1-1.7,2.1v1.2
	c-2.7,2-0.6,4.5-0.6,4.5l-1,1l1.1,2.5H847.3V572l-18.1-4.4l-7-7h-18.6V558h-33v2.6h-18.6l-7,7l-18.1,4.4v200.7c-1.8,0-3.5,0-5.3,0
	c-1.7,0-3.3,0-5,0.1V648.3c0.7-9.1,1.4-19.8,2.1-31.6c0.8-12.4,1.6-26,2.3-40.1c0.7-13.3,1.5-27,2.2-40.5c0.7-14,1.5-27.9,2.1-41
	c0.8-14.8,1.4-28.7,2-40.6c1.2-24.9,2-41.5,2-41.5h-29.9v-12.9h-27v12.9h-13.1c0,0-1.4,11.2-2.3,40.5c-0.3,11.1-0.6,24.7-0.6,41.3
	c0,12.1,0,25.7,0.2,41.1c0.2,12.6,0.4,26.3,0.8,41.3c0.3,12.8,0.7,26.5,1.2,41.1c0.4,13,1,26.7,1.6,41.2c0.6,13.1,1.2,26.8,1.9,41.2
	c0.7,13.2,1.4,26.9,2.2,41.2c0.4,6.8,0.8,13.7,1.2,20.7l-32.2-177.1l-101.2,25v72.6L467.4,557l-0.1-11.3v-2.5c0-0.2,0-0.5-0.3-0.8
	c-0.4-0.5-1.1-0.7-2.2-0.7h-1.2c-1.1,0-1.8,0.2-2.2,0.7c-0.3,0.3-0.3,0.7-0.3,0.9l0,2.5L461,562l-14.5,32.3l-18.4-35.8l-0.1-12.9
	v-2.5c0-0.2,0-0.5-0.3-0.8c-0.4-0.5-1.1-0.7-2.2-0.7h-1.2c-1,0-1.8,0.2-2.2,0.7c-0.3,0.3-0.3,0.7-0.3,0.9l0,2.5l-0.1,15l-55.2,123.1
	L317,587.3l-0.1-10v-2.2c0,0,0-0.4-0.3-0.8c-0.4-0.4-1-0.6-1.9-0.6h-1.1c-0.9,0-1.6,0.2-1.9,0.6c-0.3,0.4-0.3,0.7-0.3,0.8l0,2.1
	l-0.1,14.4l-12.6,28.1l-16-31.1l-0.1-11.3v-2.2c0,0,0-0.4-0.3-0.8c-0.4-0.4-1-0.6-1.9-0.6h-1.1c-0.9,0-1.6,0.2-1.9,0.6
	c-0.3,0.4-0.3,0.7-0.3,0.8l0,2.1l-0.1,13.2l-59.3,132.2h-12.4v-9.8l-2.3-7.5l-2.8-22.6c0,0-0.1-0.2-0.2-0.3l-0.1-4
	c0-0.1-0.1-0.1-0.1-0.1c-0.1,0-0.1,0-0.1,0.1l-0.1,4c-0.2,0.1-0.2,0.3-0.2,0.3l-2.8,22.6l-2.3,7.5v9.8h-72.3v-30.1H120v2.1l-12-67.8
	V624c0,0,0.3-0.1,0.3-0.6c0-0.4-0.4-0.5-0.8-0.5v-3.4c0,0,0.3-0.1,0.3-0.4c0-0.3-0.1-0.5-0.3-0.6v-3c0.7-0.1,1.3-0.7,1.4-1.4h1.3
	c0.1,0,0.2-0.1,0.2-0.2c0-0.1-0.1-0.2-0.2-0.2h-1.3c-0.1-0.7-0.7-1.3-1.4-1.4v-1.9c0-0.1-0.1-0.2-0.2-0.2c-0.1,0-0.2,0.1-0.2,0.2
	v1.9c-0.7,0.1-1.3,0.7-1.4,1.4h-1.3c-0.1,0-0.2,0.1-0.2,0.2c0,0.1,0.1,0.2,0.2,0.2h1.3c0.1,0.7,0.7,1.3,1.4,1.4v3
	c-0.2,0.1-0.3,0.3-0.3,0.6c0,0.4,0.3,0.4,0.3,0.4v3.4c-0.4,0-0.8,0.1-0.8,0.5c0,0.5,0.3,0.6,0.3,0.6v2.9l-12,67.8v-2.1h-1.8v34.1
	l-0.3,0.9v15.3l-0.3,0.5v49.3c-21.2,1.2-38.1,2.4-50.1,3.1c-13.4,0.9-20.5,1.4-20.5,1.4c-1.3,0.1-2.3,1.2-2.4,2.6h1831
	C1849.9,797.2,1848,795,1845.6,794.9z M1004.1,561.6h-1.2l0.6-1.9L1004.1,561.6z M107.4,612.9c0.4,0.1,0.8,0.4,0.9,0.9h-0.9V612.9z
	 M107.4,614.2h0.9c-0.1,0.4-0.5,0.8-0.9,0.9V614.2z M191.6,787.5v-2.3c0,0,0-2.4,2.6-2.8c2.5,0.5,2.6,2.8,2.6,2.8v2.1
	C195,787.3,193.3,787.4,191.6,787.5z M196.4,750.2c0.3,0.4,0.6,1,0.6,1.6h-1.5v-1.6H196.4z M195.5,749.7v-0.4
	c0.2,0.1,0.3,0.3,0.5,0.4H195.5z M197,752.4v1.6h-1.5v-1.6H197z M197,754.5v1.6h-1.5v-1.6H197z M197,756.6v1.6h-1.5v-1.6H197z
	 M197,758.8v1.6h-1.5v-1.6H197z M197,760.9v1.6h-1.5v-1.6H197z M197,763v1.5h-1.5V763H197z M197,765v1.6h-1.5V765H197z M197,767.1
	v1.6h-1.5v-1.6H197z M197,769.3v1.6h-1.5v-1.6H197z M197,771.4v1.6h-1.5v-1.6H197z M197,773.5v1.5h-1.5v-1.5H197z M197,775.5v1.6
	h-1.5v-1.6H197z M197,777.7v1.5h-1.5v-1.5H197z M204,750.2v1.6h-1.5c0.1-0.7,0.3-1.2,0.6-1.6H204z M203.5,749.7
	c0.2-0.2,0.3-0.3,0.5-0.4v0.4H203.5z M204,752.4v1.6h-1.5v-1.6H204z M204,754.5v1.6h-1.5v-1.6H204z M204,756.6v1.6h-1.5v-1.6H204z
	 M204,758.8v1.6h-1.5v-1.6H204z M204,760.9v1.6h-1.5v-1.6H204z M204,763v1.5h-1.5V763H204z M204,765v1.6h-1.5V765H204z M204,767.1
	v1.6h-1.5v-1.6H204z M204,769.3v1.6h-1.5v-1.6H204z M204,771.4v1.6h-1.5v-1.6H204z M204,773.5v1.5h-1.5v-1.5H204z M204,775.5v1.6
	h-1.5v-1.6H204z M204,777.7v1.5h-1.5v-1.5H204z M271.7,719.8c-1.5,0.1-3,0.2-4.4,0.4l8.7-13.9l0,4.4L271.7,719.8z M275.9,711.8
	l-0.1,7.7c-1.2,0.1-2.4,0.2-3.6,0.3L275.9,711.8z M266.7,720.2c-0.2,0-0.5,0-0.7,0.1l10-21.9l-0.1,7L266.7,720.2z M265.5,720.4
	c-1.6,0.1-3.1,0.3-4.7,0.4l15.3-28.1l0,4.7L265.5,720.4z M260.3,720.8c-0.2,0-0.3,0-0.5,0l16.3-36.1l-0.1,6.9L260.3,720.8z
	 M259.3,720.9c-1.6,0.1-3.2,0.3-4.8,0.4l21.7-42.8l0,5.1L259.3,720.9z M254,721.4c-0.1,0-0.3,0-0.4,0l22.6-50.5l-0.1,6.6L254,721.4z
	 M253.1,721.4c-1.6,0.1-3.2,0.3-4.8,0.5l28-57.7l0,5.6L253.1,721.4z M247.8,721.9c-1.9,0.2-3.8,0.4-5.7,0.5l34.4-72.7l-0.1,13.4
	L247.8,721.9z M241.6,722.5c-1.9,0.2-3.8,0.4-5.7,0.6l40.7-87.8l-0.1,13.4L241.6,722.5z M235.3,723.2c-1.9,0.2-3.8,0.4-5.7,0.6
	l47.1-103l-0.1,13.4L235.3,723.2z M229.1,723.8c-0.7,0.1-1.4,0.2-2.1,0.2l-1-1.3h-1.9l52.7-116.5l-0.1,13.4L229.1,723.8z
	 M235.9,748.2v1.7h-1.1c0.1-0.7,0.2-1.2,0.5-1.7H235.9z M235.6,747.7c0.1-0.2,0.2-0.3,0.3-0.4v0.4H235.6z M234.9,782.7v-1.7h1.1v1.7
	H234.9z M235.9,783.2v1.5h-1.1v-1.5H235.9z M234.9,780.6v-1.7h1.1v1.7H234.9z M234.9,778.5v-1.7h1.1v1.7H234.9z M234.9,776.3v-1.7
	h1.1v1.7H234.9z M234.9,774.2v-1.7h1.1v1.7H234.9z M234.9,772c0.1-0.7,0.2-1.2,0.5-1.7h0.6v1.7H234.9z M235.6,769.9
	c0.1-0.2,0.2-0.3,0.3-0.4v0.4H235.6z M234.9,762.5V761h1.1v1.5H234.9z M234.9,760.5v-1.7h1.1v1.7H234.9z M234.9,758.4v-1.7h1.1v1.7
	H234.9z M234.9,756.2v-1.7h1.1v1.7H234.9z M234.9,754.1v-1.7h1.1v1.7H234.9z M234.9,752v-1.7h1.1v1.7H234.9z M229.7,782.7v-1.7h1.4
	v1.7H229.7z M231.1,783.2v1.5h-1.4v-1.5H231.1z M229.7,780.6v-1.7h1.4v1.7H229.7z M229.7,778.5v-1.7h1.4v1.7H229.7z M229.7,776.3
	v-1.7h1.4v1.7H229.7z M229.7,774.2v-1.7h1.4v1.7H229.7z M230.5,770.4c0.3,0.4,0.5,1,0.6,1.7h-1.4v-1.7H230.5z M229.7,769.9v-0.5
	c0.1,0.1,0.3,0.3,0.4,0.5H229.7z M229.7,762.5V761h1.4v1.5H229.7z M229.7,760.5v-1.7h1.4v1.7H229.7z M229.7,758.4v-1.7h1.4v1.7
	H229.7z M229.7,756.2v-1.7h1.4v1.7H229.7z M229.7,754.1v-1.7h1.4v1.7H229.7z M229.7,752v-1.7h1.4v1.7H229.7z M230.5,748.2
	c0.3,0.4,0.5,1,0.6,1.7h-1.4v-1.7H230.5z M229.7,747.7v-0.5c0.1,0.1,0.3,0.3,0.4,0.5H229.7z M227.7,782.7v-1.7h1.5v1.7H227.7z
	 M229.2,783.2v1.5h-1.5v-1.5H229.2z M227.7,780.6v-1.7h1.5v1.7H227.7z M227.7,778.5v-1.7h1.5v1.7H227.7z M227.7,776.3v-1.7h1.5v1.7
	H227.7z M227.7,774.2v-1.7h1.5v1.7H227.7z M227.7,772v-1.7h1.5v1.7H227.7z M227.7,769.9v-0.8c0.3-0.2,0.6-0.4,0.8-0.4
	c0.1,0.1,0.4,0.2,0.7,0.4v0.8H227.7z M227.7,762.5V761h1.5v1.5H227.7z M227.7,760.5v-1.7h1.5v1.7H227.7z M227.7,758.4v-1.7h1.5v1.7
	H227.7z M227.7,756.2v-1.7h1.5v1.7H227.7z M227.7,754.1v-1.7h1.5v1.7H227.7z M227.7,752v-1.7h1.5v1.7H227.7z M227.7,749.8v-1.7h1.5
	v1.7H227.7z M227.7,747.7v-0.8c0.3-0.2,0.6-0.4,0.8-0.4c0.1,0.1,0.4,0.2,0.7,0.4v0.8H227.7z M226,782.7v-1.7h1.4v1.7H226z
	 M227.3,783.2v1.5H226v-1.5H227.3z M226,780.6v-1.7h1.4v1.7H226z M226,778.5v-1.7h1.4v1.7H226z M226,776.3v-1.7h1.4v1.7H226z
	 M226,774.2v-1.7h1.4v1.7H226z M226,772c0.1-0.7,0.3-1.2,0.6-1.7h0.8v1.7H226z M226.9,769.9c0.1-0.2,0.3-0.3,0.4-0.4v0.4H226.9z
	 M226,762.5V761h1.4v1.5H226z M226,760.5v-1.7h1.4v1.7H226z M226,758.4v-1.7h1.4v1.7H226z M226,756.2v-1.7h1.4v1.7H226z M226,754.1
	v-1.7h1.4v1.7H226z M226,752v-1.7h1.4v1.7H226z M226,749.8c0.1-0.7,0.3-1.2,0.6-1.7h0.8v1.7H226z M226.9,747.7
	c0.1-0.2,0.3-0.3,0.4-0.4v0.4H226.9z M217.8,782.7v-1.7h1.6v1.7H217.8z M219.3,783.2v1.5h-1.6v-1.5H219.3z M217.8,780.6v-1.7h1.6
	v1.7H217.8z M217.8,778.5v-1.7h1.6v1.7H217.8z M217.8,776.3v-1.7h1.6v1.7H217.8z M217.8,774.2v-1.7h1.6v1.7H217.8z M218.7,770.4
	c0.3,0.4,0.6,1,0.6,1.7h-1.5v-1.7H218.7z M217.8,769.9v-0.5c0.2,0.1,0.3,0.3,0.5,0.5H217.8z M217.8,762.5V761h1.6v1.5H217.8z
	 M217.8,760.5v-1.7h1.6v1.7H217.8z M217.8,758.4v-1.7h1.6v1.7H217.8z M217.8,756.2v-1.7h1.6v1.7H217.8z M217.8,754.1v-1.7h1.6v1.7
	H217.8z M217.8,752v-1.7h1.6v1.7H217.8z M218.7,748.2c0.3,0.4,0.6,1,0.6,1.7h-1.5v-1.7H218.7z M217.8,747.7v-0.5
	c0.2,0.1,0.3,0.3,0.5,0.5H217.8z M215.6,782.7v-1.7h1.7v1.7H215.6z M217.3,783.2v1.5h-1.7v-1.5H217.3z M215.6,780.6v-1.7h1.7v1.7
	H215.6z M215.6,778.5v-1.7h1.7v1.7H215.6z M215.6,776.3v-1.7h1.7v1.7H215.6z M215.6,774.2v-1.7h1.7v1.7H215.6z M215.6,772v-1.7h1.7
	v1.7H215.6z M215.6,769.9v-0.8c0.4-0.2,0.7-0.4,0.9-0.4c0.1,0.1,0.5,0.2,0.8,0.4v0.8H215.6z M215.6,762.5V761h1.7v1.5H215.6z
	 M215.6,760.5v-1.7h1.7v1.7H215.6z M215.6,758.4v-1.7h1.7v1.7H215.6z M215.6,756.2v-1.7h1.7v1.7H215.6z M215.6,754.1v-1.7h1.7v1.7
	H215.6z M215.6,752v-1.7h1.7v1.7H215.6z M215.6,749.8v-1.7h1.7v1.7H215.6z M215.6,747.7v-0.8c0.4-0.2,0.7-0.4,0.9-0.4
	c0.1,0.1,0.5,0.2,0.8,0.4v0.8H215.6z M213.6,782.7v-1.7h1.5v1.7H213.6z M215.1,783.2v1.5h-1.5v-1.5H215.1z M213.6,780.6v-1.7h1.5
	v1.7H213.6z M213.6,778.5v-1.7h1.5v1.7H213.6z M213.6,776.3v-1.7h1.5v1.7H213.6z M213.6,774.2v-1.7h1.5v1.7H213.6z M213.6,772
	c0.1-0.7,0.3-1.2,0.6-1.7h0.9v1.7H213.6z M214.6,769.9c0.2-0.2,0.3-0.3,0.5-0.4v0.4H214.6z M213.6,762.5V761h1.5v1.5H213.6z
	 M213.6,760.5v-1.7h1.5v1.7H213.6z M213.6,758.4v-1.7h1.5v1.7H213.6z M213.6,756.2v-1.7h1.5v1.7H213.6z M213.6,754.1v-1.7h1.5v1.7
	H213.6z M213.6,752v-1.7h1.5v1.7H213.6z M213.6,749.8c0.1-0.7,0.3-1.2,0.6-1.7h0.9v1.7H213.6z M214.6,747.7c0.2-0.2,0.3-0.3,0.5-0.4
	v0.4H214.6z M206.6,775.1v-1.5h1.6v1.5H206.6z M208.2,775.5v1.6h-1.6v-1.6H208.2z M206.6,773.1v-1.6h1.6v1.6H206.6z M206.6,770.9
	v-1.6h1.6v1.6H206.6z M206.6,768.8v-1.6h1.6v1.6H206.6z M206.6,766.7V765h1.6v1.6H206.6z M206.6,764.5V763h1.6v1.5H206.6z
	 M206.6,762.5v-1.6h1.6v1.6H206.6z M206.6,760.4v-1.6h1.6v1.6H206.6z M206.6,758.3v-1.6h1.6v1.6H206.6z M206.6,756.1v-1.6h1.6v1.6
	H206.6z M206.6,754v-1.6h1.6v1.6H206.6z M207.5,750.2c0.3,0.4,0.6,1,0.6,1.6h-1.5v-1.6H207.5z M206.6,749.7v-0.5
	c0.2,0.1,0.3,0.3,0.5,0.5H206.6z M206.6,777.7h1.6v1.5h-1.6V777.7z M237.5,748.2v1.7h-1.2v-1.7H237.5z M236.3,747.7v-0.8
	c0.3-0.2,0.5-0.4,0.6-0.4c0.1,0.1,0.3,0.2,0.6,0.4v0.8H236.3z M237.5,750.3v1.7h-1.2v-1.7H237.5z M237.5,752.4v1.7h-1.2v-1.7H237.5z
	 M237.5,754.6v1.7h-1.2v-1.7H237.5z M237.5,756.7v1.7h-1.2v-1.7H237.5z M237.5,758.9v1.7h-1.2v-1.7H237.5z M237.5,761v1.5h-1.2V761
	H237.5z M236.9,768.7c0.1,0.1,0.3,0.2,0.6,0.4v0.8h-1.2v-0.8C236.6,768.9,236.8,768.7,236.9,768.7z M237.5,770.4v1.7h-1.2v-1.7
	H237.5z M237.5,772.5v1.7h-1.2v-1.7H237.5z M237.5,774.7v1.7h-1.2v-1.7H237.5z M237.5,776.8v1.7h-1.2v-1.7H237.5z M237.5,778.9v1.7
	h-1.2v-1.7H237.5z M237.5,781.1v1.7h-1.2v-1.7H237.5z M237.5,783.2v1.5h-1.2v-1.5H237.5z M238.5,748.2c0.2,0.4,0.4,1,0.5,1.7h-1.1
	v-1.7H238.5z M237.8,747.7v-0.5c0.1,0.1,0.2,0.3,0.4,0.5H237.8z M239,750.3v1.7h-1.1v-1.7H239z M239,752.4v1.7h-1.1v-1.7H239z
	 M239,754.6v1.7h-1.1v-1.7H239z M239,756.7v1.7h-1.1v-1.7H239z M239,758.9v1.7h-1.1v-1.7H239z M239,761v1.5h-1.1V761H239z
	 M238.2,769.9h-0.4v-0.5C238,769.6,238.1,769.7,238.2,769.9z M238.5,770.4c0.2,0.4,0.4,1,0.5,1.7h-1.1v-1.7H238.5z M239,772.5v1.7
	h-1.1v-1.7H239z M239,774.7v1.7h-1.1v-1.7H239z M239,776.8v1.7h-1.1v-1.7H239z M239,778.9v1.7h-1.1v-1.7H239z M239,781.1v1.7h-1.1
	v-1.7H239z M239,783.2v1.5h-1.1v-1.5H239z M243.9,771.9v1.4H243c0-0.6,0.2-1,0.4-1.4H243.9z M243.6,771.4c0.1-0.1,0.2-0.3,0.3-0.4
	v0.4H243.6z M243.9,773.7v1.4H243v-1.4H243.9z M243.9,775.6v1.4H243v-1.4H243.9z M243.9,777.4v1.4H243v-1.4H243.9z M243.9,779.3v1.4
	H243v-1.4H243.9z M243.9,781.1v1.4H243v-1.4H243.9z M243.9,783v1.3H243V783H243.9z M245.2,771.9v1.4h-1v-1.4H245.2z M244.2,771.4
	v-0.7c0.2-0.2,0.4-0.3,0.5-0.4c0.1,0,0.3,0.2,0.5,0.4v0.7H244.2z M245.2,773.7v1.4h-1v-1.4H245.2z M245.2,775.6v1.4h-1v-1.4H245.2z
	 M245.2,777.4v1.4h-1v-1.4H245.2z M245.2,779.3v1.4h-1v-1.4H245.2z M245.2,781.1v1.4h-1v-1.4H245.2z M245.2,783v1.3h-1V783H245.2z
	 M246.1,771.9c0.2,0.4,0.3,0.9,0.4,1.4h-1v-1.4H246.1z M245.5,771.4V771c0.1,0.1,0.2,0.2,0.3,0.4H245.5z M246.5,773.7v1.4h-1v-1.4
	H246.5z M246.5,775.6v1.4h-1v-1.4H246.5z M246.5,777.4v1.4h-1v-1.4H246.5z M246.5,779.3v1.4h-1v-1.4H246.5z M246.5,781.1v1.4h-1
	v-1.4H246.5z M246.5,783v1.3h-1V783H246.5z M242.7,758.3v-13.4l-7.8-10.3c6.5-0.6,13.1-1.1,19.7-1.6c7-0.5,14.1-1,21.2-1.5
	l-0.5,52.3c-7.3,0.3-14.4,0.6-21.4,0.9v-15.9L242.7,758.3z M291.7,676.6l-3-5.9l3.2-6.9l3.1,6L291.7,676.6z M295.2,670.3l3.1,6
	l-3.2,6.8l-3-5.9L295.2,670.3z M291.7,677.7l3,5.9l-3.2,6.8l-3-5.9L291.7,677.7z M295,684.1l3,6l-3.3,6.7l-3-5.9L295,684.1z
	 M295.3,683.6l3.2-6.8l3.1,6l-3.3,6.7L295.3,683.6z M301.8,683.3l3.1,6.1l-3.3,6.6l-3.1-6L301.8,683.3z M301.8,682.3l-3.1-6.1
	l3.2-6.8l3.1,6.1L301.8,682.3z M302,668.4l-3.1-6.1l3.2-6.9l3.1,6.1L302,668.4z M301.7,668.9l-3.2,6.8l-3.1-6l3.2-6.9L301.7,668.9z
	 M295.2,669.2l-3.1-6l3.2-6.9l3.1,6L295.2,669.2z M291.8,662.8l-3-6l3.1-7l3.1,6L291.8,662.8z M288.5,656.3l-3-5.9l3.1-7l3.1,6
	L288.5,656.3z M288.6,657.3l3,6l-3.2,6.9l-3-5.9L288.6,657.3z M288.5,671.2l3,5.9l-3.2,6.9l-3-5.9L288.5,671.2z M288.3,685l3,5.9
	l-3.2,6.8l-3-5.8L288.3,685z M288.1,698.8l2.9,5.8l-3.3,6.8l-2.9-5.7L288.1,698.8z M288.3,698.3l3.2-6.8l3,5.9l-3.3,6.7L288.3,698.3
	z M294.8,697.8l3,5.8l-3.4,6.6l-2.9-5.7L294.8,697.8z M295.1,697.3l3.3-6.7l3.1,6l-3.3,6.6L295.1,697.3z M301.6,697l3.1,6l-3.5,6.4
	l-3-5.8L301.6,697z M305,703.6l3.1,6.2l-3.7,5.9l-2.9-5.7L305,703.6z M301.9,696.5l3.3-6.6l3.2,6.3l-3.5,6.4L301.9,696.5z
	 M305.2,688.9l-3.1-6.1l3.3-6.7l3.2,6.3L305.2,688.9z M305.4,675.1l-3.1-6.1l3.2-6.8l3.2,6.2L305.4,675.1z M305.4,661.1l-3.1-6.1
	l3.2-6.9l3.2,6.2L305.4,661.1z M305.4,647l-3.1-6.1l3.2-6.9l3.2,6.2L305.4,647z M305.2,647.6l-3.2,6.9l-3.1-6.1l3.2-6.9L305.2,647.6
	z M301.8,655l-3.2,6.9l-3.1-6l3.2-6.9L301.8,655z M295.2,655.3l-3.1-6l3.1-7l3.1,6L295.2,655.3z M291.9,648.8l-3.1-6l3.1-7l3.1,6
	L291.9,648.8z M288.6,642.3l-5.5-10.7l-0.1-13.3l8.7,17.1L288.6,642.3z M288.4,642.8l-3.1,7l-2-3.9l-0.1-13.3L288.4,642.8z
	 M285,650.3l-1.7,3.8l-0.1-7.2L285,650.3z M285.3,650.9l3,5.9l-3.1,6.9l-1.8-3.5l0-5L285.3,650.9z M284.9,664.3l-1.5,3.3l-0.1-6.4
	L284.9,664.3z M285.2,664.8l3,5.9l-3.2,6.9l-1.6-3.1l-0.1-5.9L285.2,664.8z M284.8,678.1l-1.3,2.8l0-5.4L284.8,678.1z M285.1,678.6
	l3,5.9l-3.2,6.9l-1.3-2.5l-0.1-6.9L285.1,678.6z M284.6,691.9l-1,2.1l0-4.1L284.6,691.9z M284.9,692.4l3,5.8l-3.2,6.8l-0.9-1.8
	l-0.1-8.2L284.9,692.4z M284.4,705.6l-0.6,1.3l0-2.6L284.4,705.6z M284.6,706.1l2.9,5.7l-3.4,7c-0.1,0-0.2,0-0.2,0l-0.1-10.9
	L284.6,706.1z M287.8,712.3l2.8,5.6l-0.2,0.4c-1.9,0.1-3.8,0.3-5.7,0.4L287.8,712.3z M288,711.8l3.3-6.8l2.9,5.7l-3.4,6.6L288,711.8
	z M294.4,711.3l2.8,5.6l-0.6,1c-0.2,0-0.5,0-0.7,0c-1.6,0.1-3.2,0.2-4.7,0.4l-0.2-0.4L294.4,711.3z M297.5,717.3l0.2,0.5
	c-0.2,0-0.3,0-0.5,0L297.5,717.3z M297.5,716.4l-2.8-5.6l3.4-6.6l3,5.8L297.5,716.4z M301.2,710.4l2.9,5.7l-0.8,1.3
	c-1.7,0.1-3.4,0.2-5.1,0.4l-0.5-0.9L301.2,710.4z M304.3,716.6l0.4,0.7c-0.3,0-0.6,0-0.9,0.1L304.3,716.6z M304.6,716.1l3.7-5.9
	l1.9,3.6l0,3.1c-1.7,0.1-3.3,0.2-5,0.4L304.6,716.1z M308.6,709.7l1.6-2.6l-0.1,5.7L308.6,709.7z M308.4,709.3l-3.2-6.2l3.5-6.4
	l1.6,3.2l-0.1,6.4L308.4,709.3z M308.9,696.2l1.4-2.6l0,5.3L308.9,696.2z M308.7,695.7l-3.2-6.3l3.3-6.6l1.6,3.1l-0.1,6.7
	L308.7,695.7z M309.1,682.3l1.4-2.8l0,5.5L309.1,682.3z M308.8,681.8l-3.2-6.3l3.3-6.7l1.7,3.3l-0.1,6.4L308.8,681.8z M309.1,668.3
	l1.5-3.1l-0.1,5.9L309.1,668.3z M308.9,667.8l-3.2-6.2l3.2-6.8l1.8,3.5l-0.1,6L308.9,667.8z M309.1,654.3l1.6-3.4l-0.1,6.4
	L309.1,654.3z M308.9,653.8l-3.2-6.2l3.2-6.9l1.9,3.7l-0.1,5.4L308.9,653.8z M309.1,640.2l1.7-3.7l-0.1,7L309.1,640.2z M308.9,639.6
	l-3.2-6.2l5.3-11.6l-0.1,13.4L308.9,639.6z M305.5,633l-3.1-6.1l8.8-19.5l-0.1,13.4L305.5,633z M305.2,633.5l-3.2,6.9l-3.1-6.1
	l3.2-7L305.2,633.5z M301.8,640.9l-3.2,6.9l-3.1-6l3.1-7L301.8,640.9z M295.3,641.3l-3.1-6l3.1-7l3.1,6L295.3,641.3z M292,634.8
	l-9-17.5l-0.1-13.3l12.2,23.9L292,634.8z M284,731c4.3-0.3,8.6-0.5,12.8-0.8c4.4-0.3,8.8-0.5,13.2-0.7l0,2.2l-26,1.5L284,731z
	 M359.7,698.9L317.2,616l-0.1-13.3l45.8,89.3L359.7,698.9z M363.2,692.4l3.4,6.6l-3.2,7l-3.4-6.6L363.2,692.4z M359.5,699.5l-3.2,7
	l-39-76.2l-0.1-13.3L359.5,699.5z M318.1,715.2l0.6,1.1c-0.2,0-0.4,0-0.6,0L318.1,715.2z M318.1,714.2l-0.1-11l6.4,12.7
	c-1.7,0.1-3.5,0.2-5.2,0.4L318.1,714.2z M318,702.2l0-1.4l7.7,15.1c-0.3,0-0.6,0-0.8,0.1L318,702.2z M318,699.8l-0.1-11l13.5,26.7
	c-1.7,0.1-3.5,0.2-5.2,0.3L318,699.8z M317.9,687.8l0-1.4l14.8,29c-0.3,0-0.6,0-0.8,0.1L317.9,687.8z M317.9,685.4l-0.1-11
	l20.6,40.6c-1.7,0.1-3.5,0.2-5.2,0.3L317.9,685.4z M317.8,673.4l0-1.4l22,42.9c-0.3,0-0.6,0-0.8,0.1L317.8,673.4z M317.7,671
	l-0.1-11l27.8,54.5c-1.7,0.1-3.5,0.2-5.2,0.3L317.7,671z M317.6,659l0-1.4l29.1,56.8c-0.3,0-0.5,0-0.8,0.1L317.6,659z M317.6,656.7
	l-0.1-11l35,68.4c-1.7,0.1-3.5,0.2-5.2,0.3L317.6,656.7z M317.5,644.7l-0.1-13.3l38.7,75.7l-3.2,7h0L317.5,644.7z M356.4,707.5
	l3.1,6.1c-2,0.1-4,0.3-6,0.4L356.4,707.5z M356.6,707l3.2-7l3.4,6.6l-3.2,7L356.6,707z M363.4,707.1l3.2,6.2c-2,0.1-4.1,0.2-6.1,0.4
	L363.4,707.1z M363.6,706.5l3.2-7l3.4,6.6l-3.2,7L363.6,706.5z M373.8,698.1l-3.4-6.6l51.1-113l-0.1,15.6L373.8,698.1z M421.4,595.1
	l-0.1,15.5l-43.8,94.5l-3.4-6.5L421.4,595.1z M373.6,698.6l-3.2,7L367,699l3.2-7L373.6,698.6z M370.4,706.6l3.2,6.2
	c-2.1,0.1-4.1,0.2-6.2,0.4L370.4,706.6z M370.7,706.1l3.2-7l3.4,6.5l-3.2,6.9L370.7,706.1z M377.5,706.2l3.2,6.2
	c-2.1,0.1-4.2,0.3-6.2,0.4L377.5,706.2z M377.7,705.7l43.6-93.9l-0.1,15.5L381,712.1L377.7,705.7z M421.1,628.3l-0.1,15.5L387.9,712
	c-2.2,0.1-4.3,0.2-6.5,0.4L421.1,628.3z M421,644.9l-0.1,6.5l-27,60.2c-1.8,0.1-3.7,0.2-5.5,0.3L421,644.9z M420.9,652.5l-0.1,7.7
	l-26,51.3c-0.1,0-0.3,0-0.4,0L420.9,652.5z M420.8,661.3l-0.1,6l-19.9,44c-1.8,0.1-3.7,0.2-5.5,0.3L420.8,661.3z M420.8,668.4
	l-0.1,8.1l-18.8,34.7c-0.2,0-0.3,0-0.5,0L420.8,668.4z M420.7,677.4l0,5.5l-12.8,27.9c-1.8,0.1-3.6,0.2-5.5,0.3L420.7,677.4z
	 M420.6,684l-0.1,8.2l-11.6,18.5c-0.2,0-0.4,0-0.6,0L420.6,684z M420.6,693.1l0,5.1l-5.7,12.2c-1.8,0.1-3.6,0.2-5.3,0.3L420.6,693.1
	z M420.5,699.3l-0.1,10.8c-1.7,0.1-3.4,0.2-5.1,0.3L420.5,699.3z M442.3,666.8l-3.5-6.9l3.7-7.9l3.6,7L442.3,666.8z M446.3,659.4
	l3.6,7l-3.8,7.8l-3.5-6.9L446.3,659.4z M438.5,659.4l-3.5-6.9l3.7-8l3.5,6.9L438.5,659.4z M438.6,660.4l3.5,6.9l-3.7,7.9l-3.5-6.8
	L438.6,660.4z M438.3,676.2l3.5,6.8l-3.8,7.8l-3.4-6.7L438.3,676.2z M438.6,675.7l3.7-7.9l3.5,6.9l-3.8,7.8L438.6,675.7z
	 M446.1,675.2l3.5,6.9l-3.9,7.6l-3.4-6.8L446.1,675.2z M446.3,674.7l3.8-7.8l3.6,7.1l-3.9,7.6L446.3,674.7z M450.1,665.9l-3.6-7
	l3.7-7.9l3.6,7.1L450.1,665.9z M450.2,650l-3.6-7l3.7-8l3.6,7.1L450.2,650z M450,650.5l-3.7,7.9l-3.6-7l3.7-8L450,650.5z
	 M442.5,650.9l-3.5-6.9l3.7-8l3.6,7L442.5,650.9z M438.7,643.5l-3.5-6.9l3.6-8l3.6,6.9L438.7,643.5z M434.9,636.1l-3.5-6.9l3.6-8.1
	l3.5,6.9L434.9,636.1z M434.9,637.1l3.5,6.9l-3.7,8l-3.5-6.9L434.9,637.1z M434.8,653l3.5,6.9l-3.7,7.9l-3.5-6.8L434.8,653z
	 M434.6,668.9l3.5,6.8l-3.7,7.9l-3.4-6.8L434.6,668.9z M434.4,684.6l3.4,6.7l-3.8,7.8l-3.3-6.6L434.4,684.6z M438,691.8l3.3,6.6
	l-3.9,7.7l-3.3-6.5L438,691.8z M438.3,691.3l3.8-7.8l3.4,6.8l-3.9,7.7L438.3,691.3z M445.8,690.8l3.4,6.7l-4,7.4l-3.3-6.5
	L445.8,690.8z M446,690.3l3.9-7.6l3.6,7l-4,7.4L446,690.3z M453.7,690.1l3.6,7.1L453,704l-3.4-6.6L453.7,690.1z M450.1,682.1
	l3.9-7.6l3.7,7.3l-4,7.4L450.1,682.1z M454,673.5l-3.6-7.1l3.8-7.8l3.7,7.2L454,673.5z M454.1,657.6l-3.6-7.1l3.7-7.9l3.7,7.2
	L454.1,657.6z M454.2,641.6l-3.6-7.1l3.7-8l3.7,7.2L454.2,641.6z M454.3,625.5l-3.6-7.1l3.7-8l3.7,7.1L454.3,625.5z M454,626l-3.7,8
	l-3.6-7l3.7-8L454,626z M450.1,634.5l-3.7,8l-3.6-7l3.7-8L450.1,634.5z M442.6,635L439,628l3.6-8l3.6,7L442.6,635z M438.7,627.5
	l-3.5-6.9l3.6-8.1l3.6,6.9L438.7,627.5z M434.9,620.1l-6.4-12.4l-0.1-15.4l10.1,19.7L434.9,620.1z M434.7,620.6l-3.6,8.1l-2.4-4.6
	l-0.1-15.4L434.7,620.6z M430.9,629.2l-2,4.6l-0.1-8.7L430.9,629.2z M431.1,629.7l3.5,6.9l-3.6,8l-2.1-4.2l-0.1-5.6L431.1,629.7z
	 M430.8,645.2l-1.8,4l-0.1-7.7L430.8,645.2z M431,645.7l3.5,6.9l-3.7,8l-1.9-3.7l-0.1-6.6L431,645.7z M430.6,661l-1.6,3.4l-0.1-6.6
	L430.6,661z M430.9,661.6l3.5,6.8l-3.7,7.9l-1.5-3l-0.1-7.8L430.9,661.6z M430.4,676.8l-1.2,2.6l0-5.2L430.4,676.8z M430.7,677.3
	l3.4,6.8l-3.7,7.9l-1.1-2.2l-0.1-9.3L430.7,677.3z M430.2,692.5l-0.8,1.7l0-3.4L430.2,692.5z M430.4,693l3.3,6.6l-4.3,8.8l-0.1-13.2
	L430.4,693z M434,700.1l3.2,6.5l-1.4,2.8c-2.1,0.1-4.2,0.2-6.3,0.3l0-0.3L434,700.1z M437.5,707.1l1.1,2.1c-0.7,0-1.5,0.1-2.2,0.1
	L437.5,707.1z M437.7,706.6l3.9-7.7l3.3,6.4l-2,3.7c-1.3,0.1-2.6,0.1-3.9,0.2L437.7,706.6z M445.1,705.8l1.5,3
	c-1.1,0.1-2.1,0.1-3.2,0.2L445.1,705.8z M445.4,705.4l4-7.4l3.3,6.5l-2.6,4.1c-1,0-2,0.1-3,0.1L445.4,705.4z M453,705l1.8,3.5
	c-1.3,0.1-2.7,0.1-4,0.2L453,705z M453.3,704.5l4.3-6.9l2.2,4.3l-0.1,6.2c-1.5,0.1-3,0.1-4.5,0.2L453.3,704.5z M457.8,697.2l2-3.2
	l-0.1,6.9L457.8,697.2z M457.6,696.8l-3.6-7.2l4-7.4l1.9,3.8l-0.1,7.2L457.6,696.8z M458.2,681.7l1.7-3.2l-0.1,6.5L458.2,681.7z
	 M458,681.3l-3.7-7.3l3.9-7.6l1.9,3.7l-0.1,7.5L458,681.3z M458.4,665.8l1.7-3.4l-0.1,6.7L458.4,665.8z M458.1,665.4l-3.7-7.3
	l3.8-7.8l2,3.9l-0.1,7.2L458.1,665.4z M458.4,649.8l1.8-3.7l-0.1,7.1L458.4,649.8z M458.2,649.3l-3.7-7.2l3.7-7.9l2.1,4.1l-0.1,6.7
	L458.2,649.3z M458.4,633.7l1.9-4.1l-0.1,7.7L458.4,633.7z M458.2,633.2l-3.7-7.2l3.7-8l2.2,4.4l-0.1,6.1L458.2,633.2z M458.4,617.6
	l2.1-4.5l-0.1,8.4L458.4,617.6z M458.2,617l-3.7-7.1l6.2-13.5l-0.1,15.5L458.2,617z M454.3,609.4l-3.6-7.1l10.2-22.5l-0.1,15.5
	L454.3,609.4z M454,609.9l-3.7,8l-3.6-7l3.6-8L454,609.9z M450.1,618.4l-3.7,8l-3.6-7l3.6-8L450.1,618.4z M442.6,619l-3.6-6.9
	l3.6-8.1l3.6,7L442.6,619z M438.8,611.5l-10.4-20.2l-0.1-15.4l14.1,27.5L438.8,611.5z M429.6,724.2c10-0.4,20-0.7,29.9-1l0,2.4
	l-29.9,1.1L429.6,724.2z M532.1,704.9c-1.8,0.1-3.6,0.1-5.3,0.2l-59-115.3l-0.1-15.4l64.5,125.9V704.9z M468.7,702.2l-0.1-12.7
	l8.9,17.8c-2,0.1-4,0.2-6.1,0.3L468.7,702.2z M470.9,707.6c-0.7,0-1.5,0.1-2.2,0.1l0-4.5L470.9,707.6z M468.6,688.5l0-1.8l10.5,20.5
	c-0.4,0-0.7,0-1.1,0L468.6,688.5z M468.5,685.7l-0.1-12.7l17.2,33.9c-2,0.1-4,0.2-6.1,0.3L468.5,685.7z M468.4,672l0-1.7l18.7,36.6
	c-0.4,0-0.7,0-1.1,0L468.4,672z M468.4,669.3l-0.1-12.7l25.4,50c-2,0.1-4.1,0.2-6.1,0.3L468.4,669.3z M468.3,655.6l0-1.7l27,52.7
	c-0.3,0-0.7,0-1,0L468.3,655.6z M468.3,652.8l-0.1-12.7l33.7,66.1c-2,0.1-4.1,0.2-6.1,0.3L468.3,652.8z M468.1,639.1l0-1.7
	l35.3,68.7c-0.3,0-0.7,0-1,0L468.1,639.1z M468.1,636.4l-0.1-12.7l42,82.1c-2,0.1-4.1,0.2-6.1,0.3L468.1,636.4z M468,622.7
	l-0.1-15.4l50.3,98.2c-2.5,0.1-5.1,0.2-7.6,0.3L468,622.7z M467.8,606.3l-0.1-15.4l58.5,114.3c-2.5,0.1-5.1,0.2-7.6,0.3L467.8,606.3
	z M468.9,722.8c21.1-0.7,42.1-1.3,63.2-1.8v55c-21.3,0.5-42.2,1-62.7,1.5L468.9,722.8z M532.1,684v15.2l-64.5-125.9l-0.1-15.4
	L532.1,684z M461,563.2l-0.1,15.6l-10.5,23.1l-3.6-7L461,563.2z M446.5,595.3l3.6,7l-3.6,8l-3.6-7L446.5,595.3z M446.3,594.8
	l-3.6,8.1l-14.4-28l-0.1-15.4L446.3,594.8z M421.7,561.8l-0.1,15.6L370.2,691l-3.4-6.6L421.7,561.8z M366.5,684.9l3.4,6.6l-3.2,7
	l-3.4-6.6L366.5,684.9z M366.3,684.4l-3.2,7l-46-89.7l-0.1-13.3L366.3,684.4z M311.3,592.8l-0.1,13.4l-9.1,20.1l-3.1-6.1
	L311.3,592.8z M298.7,620.8l3.1,6.1l-3.1,7l-3.1-6L298.7,620.8z M298.5,620.3l-3.1,7l-12.5-24.4l-0.1-13.3L298.5,620.3z M277,591.7
	l-0.1,13.5l-53.2,117.6h-5.4L277,591.7z M204.9,737.9h0.9v4.2h-0.9V737.9z M204.4,749c0.4-0.2,0.7-0.4,0.9-0.4
	c0.1,0.1,0.5,0.2,0.8,0.4v0.8h-1.7V749z M204.4,750.2h1.7v1.6h-1.7V750.2z M204.4,752.4h1.7v1.6h-1.7V752.4z M204.4,754.5h1.7v1.6
	h-1.7V754.5z M204.4,756.6h1.7v1.6h-1.7V756.6z M204.4,758.8h1.7v1.6h-1.7V758.8z M204.4,760.9h1.7v1.6h-1.7V760.9z M204.4,763h1.7
	v1.5h-1.7V763z M204.4,765h1.7v1.6h-1.7V765z M204.4,767.1h1.7v1.6h-1.7V767.1z M204.4,769.3h1.7v1.6h-1.7V769.3z M204.4,771.4h1.7
	v1.6h-1.7V771.4z M204.4,773.5h1.7v1.5h-1.7V773.5z M204.4,775.5h1.7v1.6h-1.7V775.5z M204.4,777.7h1.7v1.5h-1.7V777.7z M202,716.3
	c0,0,0-1.3,1.1-1.3c1.2,0,1.1,1.3,1.1,1.3v2.7H202V716.3z M198.6,716.3c0,0,0-1.3,1.1-1.3c1.2,0,1.1,1.3,1.1,1.3v2.7h-2.2V716.3z
	 M195.2,716.3c0,0,0-1.3,1.1-1.3c1.2,0,1.1,1.3,1.1,1.3v2.7h-2.2V716.3z M193.7,737.9h0.9v4.2h-0.9V737.9z M193.3,749
	c0.4-0.2,0.7-0.4,0.8-0.4c0.2,0.1,0.5,0.2,0.9,0.4v0.8h-1.7V749z M193.3,750.2h1.7v1.6h-1.7V750.2z M193.3,752.4h1.7v1.6h-1.7V752.4
	z M193.3,754.5h1.7v1.6h-1.7V754.5z M193.3,756.6h1.7v1.6h-1.7V756.6z M193.3,758.8h1.7v1.6h-1.7V758.8z M193.3,760.9h1.7v1.6h-1.7
	V760.9z M193.3,763h1.7v1.5h-1.7V763z M193.3,765h1.7v1.6h-1.7V765z M193.3,767.1h1.7v1.6h-1.7V767.1z M193.3,769.3h1.7v1.6h-1.7
	V769.3z M193.3,771.4h1.7v1.6h-1.7V771.4z M193.3,773.5h1.7v1.5h-1.7V773.5z M193.3,775.5h1.7v1.6h-1.7V775.5z M193.3,777.7h1.7v1.5
	h-1.7V777.7z M192.8,749.3v0.5h-0.5C192.5,749.6,192.7,749.4,192.8,749.3z M191.9,750.2h0.9v1.6h-1.5
	C191.4,751.2,191.6,750.7,191.9,750.2z M191.3,752.4h1.6v1.6h-1.6V752.4z M191.3,754.5h1.6v1.6h-1.6V754.5z M191.3,756.6h1.6v1.6
	h-1.6V756.6z M191.3,758.8h1.6v1.6h-1.6V758.8z M191.3,760.9h1.6v1.6h-1.6V760.9z M191.3,763h1.6v1.5h-1.6V763z M191.3,765h1.6v1.6
	h-1.6V765z M191.3,767.1h1.6v1.6h-1.6V767.1z M191.3,769.3h1.6v1.6h-1.6V769.3z M191.3,771.4h1.6v1.6h-1.6V771.4z M191.3,773.5h1.6
	v1.5h-1.6V773.5z M191.3,775.5h1.6v1.6h-1.6V775.5z M191.3,777.7h1.6v1.5h-1.6V777.7z M102.6,746.9v-4.8c0,0,0-0.7,0.5-0.9
	c0.5,0.2,0.5,0.9,0.5,0.9v4.8H102.6z M104.8,706.2c0,0.3,0.1,0.6,0.2,0.9l-0.2,0.1c-0.2-0.3-0.2-0.7-0.3-1H104.8z M104.5,705.9
	c0-0.4,0.1-0.7,0.3-1l0.2,0.1c-0.1,0.3-0.2,0.6-0.2,0.9H104.5z M105.2,707.4c0.2,0.3,0.4,0.5,0.7,0.7l-0.1,0.2
	c-0.3-0.2-0.5-0.4-0.7-0.7L105.2,707.4z M107.9,735.1v2.3h-1.5v-2.3H107.9z M107.3,708.7v-0.3c0.3,0,0.6-0.1,0.9-0.2l0.1,0.2
	C108,708.6,107.7,708.7,107.3,708.7z M107.6,742.1v4.8h-1v-4.8c0,0,0-0.7,0.5-0.9C107.6,741.4,107.6,742.1,107.6,742.1z M107,708.7
	c-0.4,0-0.7-0.1-1-0.3l0.1-0.2c0.3,0.1,0.6,0.2,0.9,0.2V708.7z M107.2,756.5c0.9,0,1.5,0.7,1.5,1.6c0,0.9-0.7,1.6-1.5,1.6
	s-1.6-0.7-1.6-1.6C105.6,757.2,106.3,756.5,107.2,756.5z M109.5,706.2h0.3c0,0.4-0.1,0.7-0.3,1l-0.2-0.1
	C109.4,706.8,109.5,706.5,109.5,706.2z M109.3,705l0.2-0.1c0.2,0.3,0.2,0.7,0.3,1h-0.3C109.5,705.6,109.4,705.3,109.3,705z
	 M109.4,707.5c-0.2,0.3-0.5,0.5-0.8,0.7l-0.1-0.2c0.3-0.2,0.5-0.4,0.7-0.7L109.4,707.5z M109.3,730.9V729c0,0,0-0.8,0.6-0.9
	c0.6,0.2,0.6,0.9,0.6,0.9v1.8H109.3z M109.7,742.1v4.8h-1v-4.8c0,0,0-0.7,0.5-0.9C109.7,741.4,109.7,742.1,109.7,742.1z
	 M105.6,742.1v4.8h-1v-4.8c0,0,0-0.7,0.5-0.9C105.6,741.4,105.6,742.1,105.6,742.1z M105,730.9h-1.3V729c0,0,0-0.8,0.6-0.9
	c0.6,0.2,0.6,0.9,0.6,0.9V730.9z M111.7,742.1v4.8h-1v-4.8c0,0,0-0.7,0.5-0.9C111.7,741.4,111.7,742.1,111.7,742.1z M111.2,730.9
	V729c0,0,0-0.8,0.6-0.9c0.6,0.2,0.6,0.9,0.6,0.9v1.8H111.2z M127.1,770.4v1.7h-1.5c0.1-0.7,0.3-1.2,0.6-1.7H127.1z M126.5,769.9
	c0.2-0.2,0.3-0.3,0.5-0.5v0.5H126.5z M140.7,770.4v1.7h-1.5c0.1-0.7,0.3-1.2,0.6-1.7H140.7z M140.2,769.9c0.2-0.2,0.3-0.3,0.5-0.5
	v0.5H140.2z M154.4,770.4v1.7h-1.5c0.1-0.7,0.3-1.2,0.6-1.7H154.4z M153.9,769.9c0.2-0.2,0.3-0.3,0.5-0.5v0.5H153.9z M168,770.4v1.7
	h-1.5c0.1-0.7,0.3-1.2,0.6-1.7H168z M167.5,769.9c0.2-0.2,0.3-0.3,0.5-0.5v0.5H167.5z M181.7,770.4v1.7h-1.5
	c0.1-0.7,0.3-1.2,0.6-1.7H181.7z M181.2,769.9c0.2-0.2,0.3-0.3,0.5-0.5v0.5H181.2z M184.3,747.2c0.2,0.1,0.3,0.3,0.5,0.4h-0.5V747.2
	z M184.3,748.2h0.9c0.3,0.4,0.6,1,0.6,1.7h-1.5V748.2z M184.3,750.3h1.5v1.7h-1.5V750.3z M184.3,752.4h1.5v1.7h-1.5V752.4z
	 M184.3,754.6h1.5v1.7h-1.5V754.6z M184.3,756.7h1.5v1.7h-1.5V756.7z M184.3,758.9h1.5v1.7h-1.5V758.9z M184.3,761h1.5v1.5h-1.5V761
	z M184.3,769.5c0.2,0.1,0.3,0.3,0.5,0.4h-0.5V769.5z M184.3,770.4h0.9c0.3,0.4,0.6,1,0.6,1.7h-1.5V770.4z M184.3,772.5h1.5v1.7h-1.5
	V772.5z M184.3,774.7h1.5v1.7h-1.5V774.7z M184.3,776.8h1.5v1.7h-1.5V776.8z M184.3,778.9h1.5v1.7h-1.5V778.9z M184.3,781.1h1.5v1.7
	h-1.5V781.1z M184.3,783.2h1.5v1.5h-1.5V783.2z M182.2,746.9c0.4-0.2,0.7-0.4,0.8-0.4c0.2,0.1,0.5,0.2,0.9,0.4v0.8h-1.7V746.9z
	 M182.2,748.2h1.7v1.7h-1.7V748.2z M182.2,750.3h1.7v1.7h-1.7V750.3z M182.2,752.4h1.7v1.7h-1.7V752.4z M182.2,754.6h1.7v1.7h-1.7
	V754.6z M182.2,756.7h1.7v1.7h-1.7V756.7z M182.2,758.9h1.7v1.7h-1.7V758.9z M182.2,761h1.7v1.5h-1.7V761z M182.2,769.1
	c0.4-0.2,0.7-0.4,0.8-0.4c0.2,0.1,0.5,0.2,0.9,0.4v0.8h-1.7V769.1z M182.2,770.4h1.7v1.7h-1.7V770.4z M182.2,772.5h1.7v1.7h-1.7
	V772.5z M182.2,774.7h1.7v1.7h-1.7V774.7z M182.2,776.8h1.7v1.7h-1.7V776.8z M182.2,778.9h1.7v1.7h-1.7V778.9z M182.2,781.1h1.7v1.7
	h-1.7V781.1z M182.2,783.2h1.7v1.5h-1.7V783.2z M181.7,747.2v0.5h-0.5C181.3,747.5,181.5,747.3,181.7,747.2z M180.8,748.2h0.9v1.7
	h-1.5C180.2,749.1,180.5,748.6,180.8,748.2z M180.1,750.3h1.6v1.7h-1.6V750.3z M180.1,752.4h1.6v1.7h-1.6V752.4z M180.1,754.6h1.6
	v1.7h-1.6V754.6z M180.1,756.7h1.6v1.7h-1.6V756.7z M180.1,758.9h1.6v1.7h-1.6V758.9z M180.1,761h1.6v1.5h-1.6V761z M180.1,772.5
	h1.6v1.7h-1.6V772.5z M180.1,774.7h1.6v1.7h-1.6V774.7z M180.1,776.8h1.6v1.7h-1.6V776.8z M180.1,778.9h1.6v1.7h-1.6V778.9z
	 M180.1,781.1h1.6v1.7h-1.6V781.1z M180.1,783.2h1.6v1.5h-1.6V783.2z M170.7,747.2c0.2,0.1,0.3,0.3,0.5,0.4h-0.5V747.2z
	 M170.7,748.2h0.9c0.3,0.4,0.6,1,0.6,1.7h-1.5V748.2z M170.7,750.3h1.5v1.7h-1.5V750.3z M170.7,752.4h1.5v1.7h-1.5V752.4z
	 M170.7,754.6h1.5v1.7h-1.5V754.6z M170.7,756.7h1.5v1.7h-1.5V756.7z M170.7,758.9h1.5v1.7h-1.5V758.9z M170.7,761h1.5v1.5h-1.5V761
	z M170.7,769.5c0.2,0.1,0.3,0.3,0.5,0.4h-0.5V769.5z M170.7,770.4h0.9c0.3,0.4,0.6,1,0.6,1.7h-1.5V770.4z M170.7,772.5h1.5v1.7h-1.5
	V772.5z M170.7,774.7h1.5v1.7h-1.5V774.7z M170.7,776.8h1.5v1.7h-1.5V776.8z M170.7,778.9h1.5v1.7h-1.5V778.9z M170.7,781.1h1.5v1.7
	h-1.5V781.1z M170.7,783.2h1.5v1.5h-1.5V783.2z M168.5,746.9c0.4-0.2,0.7-0.4,0.8-0.4c0.1,0.1,0.5,0.2,0.9,0.4v0.8h-1.7V746.9z
	 M168.5,748.2h1.7v1.7h-1.7V748.2z M168.5,750.3h1.7v1.7h-1.7V750.3z M168.5,752.4h1.7v1.7h-1.7V752.4z M168.5,754.6h1.7v1.7h-1.7
	V754.6z M168.5,756.7h1.7v1.7h-1.7V756.7z M168.5,758.9h1.7v1.7h-1.7V758.9z M168.5,761h1.7v1.5h-1.7V761z M168.5,769.1
	c0.4-0.2,0.7-0.4,0.8-0.4c0.1,0.1,0.5,0.2,0.9,0.4v0.8h-1.7V769.1z M168.5,770.4h1.7v1.7h-1.7V770.4z M168.5,772.5h1.7v1.7h-1.7
	V772.5z M168.5,774.7h1.7v1.7h-1.7V774.7z M168.5,776.8h1.7v1.7h-1.7V776.8z M168.5,778.9h1.7v1.7h-1.7V778.9z M168.5,781.1h1.7v1.7
	h-1.7V781.1z M168.5,783.2h1.7v1.5h-1.7V783.2z M168,747.2v0.5h-0.5C167.7,747.5,167.9,747.3,168,747.2z M167.1,748.2h0.9v1.7h-1.5
	C166.6,749.1,166.8,748.6,167.1,748.2z M166.5,750.3h1.6v1.7h-1.6V750.3z M166.5,752.4h1.6v1.7h-1.6V752.4z M166.5,754.6h1.6v1.7
	h-1.6V754.6z M166.5,756.7h1.6v1.7h-1.6V756.7z M166.5,758.9h1.6v1.7h-1.6V758.9z M166.5,761h1.6v1.5h-1.6V761z M166.5,772.5h1.6
	v1.7h-1.6V772.5z M166.5,774.7h1.6v1.7h-1.6V774.7z M166.5,776.8h1.6v1.7h-1.6V776.8z M166.5,778.9h1.6v1.7h-1.6V778.9z
	 M166.5,781.1h1.6v1.7h-1.6V781.1z M166.5,783.2h1.6v1.5h-1.6V783.2z M157,747.2c0.2,0.1,0.3,0.3,0.5,0.4H157V747.2z M157,748.2h0.9
	c0.3,0.4,0.6,1,0.6,1.7H157V748.2z M157,750.3h1.5v1.7H157V750.3z M157,752.4h1.5v1.7H157V752.4z M157,754.6h1.5v1.7H157V754.6z
	 M157,756.7h1.5v1.7H157V756.7z M157,758.9h1.5v1.7H157V758.9z M157,761h1.5v1.5H157V761z M157,769.5c0.2,0.1,0.3,0.3,0.5,0.4H157
	V769.5z M157,770.4h0.9c0.3,0.4,0.6,1,0.6,1.7H157V770.4z M157,772.5h1.5v1.7H157V772.5z M157,774.7h1.5v1.7H157V774.7z M157,776.8
	h1.5v1.7H157V776.8z M157,778.9h1.5v1.7H157V778.9z M157,781.1h1.5v1.7H157V781.1z M157,783.2h1.5v1.5H157V783.2z M154.9,746.9
	c0.4-0.2,0.7-0.4,0.8-0.4c0.2,0.1,0.5,0.2,0.9,0.4v0.8h-1.7V746.9z M154.9,748.2h1.7v1.7h-1.7V748.2z M154.9,750.3h1.7v1.7h-1.7
	V750.3z M154.9,752.4h1.7v1.7h-1.7V752.4z M154.9,754.6h1.7v1.7h-1.7V754.6z M154.9,756.7h1.7v1.7h-1.7V756.7z M154.9,758.9h1.7v1.7
	h-1.7V758.9z M154.9,761h1.7v1.5h-1.7V761z M154.9,769.1c0.4-0.2,0.7-0.4,0.8-0.4c0.2,0.1,0.5,0.2,0.9,0.4v0.8h-1.7V769.1z
	 M154.9,770.4h1.7v1.7h-1.7V770.4z M154.9,772.5h1.7v1.7h-1.7V772.5z M154.9,774.7h1.7v1.7h-1.7V774.7z M154.9,776.8h1.7v1.7h-1.7
	V776.8z M154.9,778.9h1.7v1.7h-1.7V778.9z M154.9,781.1h1.7v1.7h-1.7V781.1z M154.9,783.2h1.7v1.5h-1.7V783.2z M154.4,747.2v0.5
	h-0.5C154,747.5,154.2,747.3,154.4,747.2z M153.5,748.2h0.9v1.7h-1.5C152.9,749.1,153.1,748.6,153.5,748.2z M152.8,750.3h1.6v1.7
	h-1.6V750.3z M152.8,752.4h1.6v1.7h-1.6V752.4z M152.8,754.6h1.6v1.7h-1.6V754.6z M152.8,756.7h1.6v1.7h-1.6V756.7z M152.8,758.9
	h1.6v1.7h-1.6V758.9z M152.8,761h1.6v1.5h-1.6V761z M152.8,772.5h1.6v1.7h-1.6V772.5z M152.8,774.7h1.6v1.7h-1.6V774.7z
	 M152.8,776.8h1.6v1.7h-1.6V776.8z M152.8,778.9h1.6v1.7h-1.6V778.9z M152.8,781.1h1.6v1.7h-1.6V781.1z M152.8,783.2h1.6v1.5h-1.6
	V783.2z M143.4,747.2c0.2,0.1,0.3,0.3,0.5,0.4h-0.5V747.2z M143.4,748.2h0.9c0.3,0.4,0.6,1,0.6,1.7h-1.5V748.2z M143.4,750.3h1.5
	v1.7h-1.5V750.3z M143.4,752.4h1.5v1.7h-1.5V752.4z M143.4,754.6h1.5v1.7h-1.5V754.6z M143.4,756.7h1.5v1.7h-1.5V756.7z
	 M143.4,758.9h1.5v1.7h-1.5V758.9z M143.4,761h1.5v1.5h-1.5V761z M143.4,769.5c0.2,0.1,0.3,0.3,0.5,0.4h-0.5V769.5z M143.4,770.4
	h0.9c0.3,0.4,0.6,1,0.6,1.7h-1.5V770.4z M143.4,772.5h1.5v1.7h-1.5V772.5z M143.4,774.7h1.5v1.7h-1.5V774.7z M143.4,776.8h1.5v1.7
	h-1.5V776.8z M143.4,778.9h1.5v1.7h-1.5V778.9z M143.4,781.1h1.5v1.7h-1.5V781.1z M143.4,783.2h1.5v1.5h-1.5V783.2z M141.2,746.9
	c0.4-0.2,0.7-0.4,0.8-0.4c0.2,0.1,0.5,0.2,0.9,0.4v0.8h-1.7V746.9z M141.2,748.2h1.7v1.7h-1.7V748.2z M141.2,750.3h1.7v1.7h-1.7
	V750.3z M141.2,752.4h1.7v1.7h-1.7V752.4z M141.2,754.6h1.7v1.7h-1.7V754.6z M141.2,756.7h1.7v1.7h-1.7V756.7z M141.2,758.9h1.7v1.7
	h-1.7V758.9z M141.2,761h1.7v1.5h-1.7V761z M141.2,769.1c0.4-0.2,0.7-0.4,0.8-0.4c0.2,0.1,0.5,0.2,0.9,0.4v0.8h-1.7V769.1z
	 M141.2,770.4h1.7v1.7h-1.7V770.4z M141.2,772.5h1.7v1.7h-1.7V772.5z M141.2,774.7h1.7v1.7h-1.7V774.7z M141.2,776.8h1.7v1.7h-1.7
	V776.8z M141.2,778.9h1.7v1.7h-1.7V778.9z M141.2,781.1h1.7v1.7h-1.7V781.1z M141.2,783.2h1.7v1.5h-1.7V783.2z M140.7,747.2v0.5
	h-0.5C140.4,747.5,140.5,747.3,140.7,747.2z M139.8,748.2h0.9v1.7h-1.5C139.2,749.1,139.5,748.6,139.8,748.2z M139.1,750.3h1.6v1.7
	h-1.6V750.3z M139.1,752.4h1.6v1.7h-1.6V752.4z M139.1,754.6h1.6v1.7h-1.6V754.6z M139.1,756.7h1.6v1.7h-1.6V756.7z M139.1,758.9
	h1.6v1.7h-1.6V758.9z M139.1,761h1.6v1.5h-1.6V761z M139.1,772.5h1.6v1.7h-1.6V772.5z M139.1,774.7h1.6v1.7h-1.6V774.7z
	 M139.1,776.8h1.6v1.7h-1.6V776.8z M139.1,778.9h1.6v1.7h-1.6V778.9z M139.1,781.1h1.6v1.7h-1.6V781.1z M139.1,783.2h1.6v1.5h-1.6
	V783.2z M129.7,747.2c0.2,0.1,0.3,0.3,0.5,0.4h-0.5V747.2z M129.7,748.2h0.9c0.3,0.4,0.6,1,0.6,1.7h-1.5V748.2z M129.7,750.3h1.5
	v1.7h-1.5V750.3z M129.7,752.4h1.5v1.7h-1.5V752.4z M129.7,754.6h1.5v1.7h-1.5V754.6z M129.7,756.7h1.5v1.7h-1.5V756.7z
	 M129.7,758.9h1.5v1.7h-1.5V758.9z M129.7,761h1.5v1.5h-1.5V761z M129.7,769.5c0.2,0.1,0.3,0.3,0.5,0.4h-0.5V769.5z M129.7,770.4
	h0.9c0.3,0.4,0.6,1,0.6,1.7h-1.5V770.4z M129.7,772.5h1.5v1.7h-1.5V772.5z M129.7,774.7h1.5v1.7h-1.5V774.7z M129.7,776.8h1.5v1.7
	h-1.5V776.8z M129.7,778.9h1.5v1.7h-1.5V778.9z M129.7,781.1h1.5v1.7h-1.5V781.1z M129.7,783.2h1.5v1.5h-1.5V783.2z M127.5,746.9
	c0.4-0.2,0.7-0.4,0.8-0.4c0.1,0.1,0.5,0.2,0.9,0.4v0.8h-1.7V746.9z M127.5,748.2h1.7v1.7h-1.7V748.2z M127.5,750.3h1.7v1.7h-1.7
	V750.3z M127.5,752.4h1.7v1.7h-1.7V752.4z M127.5,754.6h1.7v1.7h-1.7V754.6z M127.5,756.7h1.7v1.7h-1.7V756.7z M127.5,758.9h1.7v1.7
	h-1.7V758.9z M127.5,761h1.7v1.5h-1.7V761z M127.5,769.1c0.4-0.2,0.7-0.4,0.8-0.4c0.1,0.1,0.5,0.2,0.9,0.4v0.8h-1.7V769.1z
	 M127.5,770.4h1.7v1.7h-1.7V770.4z M127.5,772.5h1.7v1.7h-1.7V772.5z M127.5,774.7h1.7v1.7h-1.7V774.7z M127.5,776.8h1.7v1.7h-1.7
	V776.8z M127.5,778.9h1.7v1.7h-1.7V778.9z M127.5,781.1h1.7v1.7h-1.7V781.1z M127.5,783.2h1.7v1.5h-1.7V783.2z M127.1,747.2v0.5
	h-0.5C126.7,747.5,126.9,747.3,127.1,747.2z M126.1,748.2h0.9v1.7h-1.5C125.6,749.1,125.8,748.6,126.1,748.2z M125.5,750.3h1.6v1.7
	h-1.6V750.3z M125.5,752.4h1.6v1.7h-1.6V752.4z M125.5,754.6h1.6v1.7h-1.6V754.6z M125.5,756.7h1.6v1.7h-1.6V756.7z M125.5,758.9
	h1.6v1.7h-1.6V758.9z M125.5,761h1.6v1.5h-1.6V761z M125.5,772.5h1.6v1.7h-1.6V772.5z M125.5,774.7h1.6v1.7h-1.6V774.7z
	 M125.5,776.8h1.6v1.7h-1.6V776.8z M125.5,778.9h1.6v1.7h-1.6V778.9z M125.5,781.1h1.6v1.7h-1.6V781.1z M125.5,783.2h1.6v1.5h-1.6
	V783.2z M112.5,721.2v4.5h-3.1v-4.5c0,0,0-1.8,1.6-2.3C112.5,719.4,112.5,721.2,112.5,721.2z M110.4,681h-1.1c0,0-0.1-1.1,0.6-1.5
	C110.5,679.9,110.4,681,110.4,681z M109.1,655.8c0.5,0.4,0.4,1.5,0.4,1.5h-0.8C108.7,657.3,108.6,656.2,109.1,655.8z M108.6,703.8
	c0.3,0.2,0.6,0.4,0.8,0.7l-0.2,0.1c-0.2-0.3-0.4-0.5-0.7-0.7L108.6,703.8z M107.3,703.4c0.4,0,0.7,0.1,1,0.3l-0.1,0.2
	c-0.3-0.1-0.6-0.2-0.9-0.2V703.4z M107,705.2l0,0.7l-0.2,0c-0.1,0-0.1,0-0.1,0.1c0,0,0,0,0,0.1c0,0,0,0,0,0c0,0,0,0,0,0
	c0,0,0,0,0,0.1c0,0.1,0.1,0.1,0.1,0.1c0,0,0,0,0,0l0.2,0v0.2c0,0.1,0.1,0.1,0.1,0.1c0.1,0,0.1-0.1,0.1-0.1l0-0.3l0.4,0h0.4
	c0,0,0,0,0,0.1c0.1,0,0.1,0.1,0.1,0.2c0,0,0,0.1,0.1,0.1c0,0,0,0,0,0c0,0,0.1,0,0.1-0.1c0.1-0.1,0.4-0.3,0.5-0.3c0,0,0,0,0,0
	c0,0,0,0,0,0c0,0,0,0,0,0c0,0,0,0,0,0c0,0,0,0,0,0c0,0,0,0,0,0c0,0,0,0,0,0c0,0,0,0,0,0c0,0,0,0,0,0c0,0,0,0,0,0
	c-0.1,0-0.5-0.2-0.5-0.3c0,0-0.1-0.1-0.1-0.1c-0.1,0-0.1,0-0.1,0.1c0,0.1,0,0.2-0.1,0.2c0,0,0,0,0,0.1h-0.4l-0.4,0l0-0.7
	c0-0.1,0-0.2,0-0.3c0-0.1,0-0.2,0-0.3c0-0.2,0-0.4-0.1-0.5c1.1,0,2,0.9,2,2.1c0,1.1-0.9,2.1-2.1,2.1c-1.1,0-2.1-0.9-2.1-2.1
	c0-1.1,0.9-2,2-2.1c0,0.2,0,0.4-0.1,0.5c0,0.1,0,0.2,0,0.3C107,705,107,705.1,107,705.2z M106.9,612.9v0.9H106
	C106.1,613.3,106.5,613,106.9,612.9z M106,614.2h0.9v0.9C106.5,615,106.1,614.7,106,614.2z M107,703.4v0.3c-0.3,0-0.6,0.1-0.9,0.2
	l-0.1-0.2C106.3,703.5,106.6,703.4,107,703.4z M105.8,704.1c-0.3,0.2-0.5,0.4-0.7,0.7l-0.2-0.1c0.2-0.3,0.5-0.5,0.7-0.7L105.8,704.1
	z M105.2,655.8c0.5,0.4,0.4,1.5,0.4,1.5h-0.8C104.8,657.3,104.7,656.2,105.2,655.8z M104.5,679.5c0.7,0.4,0.6,1.5,0.6,1.5h-1.1
	C103.9,681,103.8,679.9,104.5,679.5z M101.8,721.2c0,0,0-1.8,1.6-2.3c1.6,0.4,1.6,2.3,1.6,2.3v4.5h-3.2V721.2z M101.8,729
	c0,0,0-0.8,0.6-0.9c0.6,0.2,0.6,0.9,0.6,0.9v1.8h-1.3V729z M284.4,783.5l-0.3-36.8l25.8-1.4l-0.3,37.2c-1,0-2.1,0.1-3.2,0.1
	C299,782.9,291.7,783.2,284.4,783.5z M318.7,782.2l-0.5-53.2c21.1-1.1,42.1-2.1,63.2-3c12.9-0.5,25.9-1,38.8-1.5l-0.5,54.4
	c-15.9,0.5-31.5,0.9-46.7,1.4C354.4,781,336.3,781.6,318.7,782.2z M430.1,778.6l-0.3-37l29.6-1l-0.3,37.2c-4.9,0.1-9.8,0.3-14.6,0.4
	C439.7,778.3,434.9,778.5,430.1,778.6z M1772.2,776.4c0.5,1.4,0.4,2.5,0.4,2.5v11.5c-1.8-0.1-3.6-0.2-5.4-0.3
	c-2.8-0.1-5.8-0.3-8.8-0.5v-10.8c0,0-0.1-1.1,0.4-2.5c0,0,0,0,0,0c0.4-1.4,1.4-3.2,3.2-4.1c0.9-0.5,2-0.8,3.5-0.8
	c1.4,0,2.6,0.3,3.5,0.8C1770.8,773.2,1771.7,774.9,1772.2,776.4C1772.2,776.3,1772.2,776.4,1772.2,776.4z M1576,771.5v-4.2
	c0,0,0.1-0.6,0.6-0.6c0.5,0,0.6,0.6,0.6,0.6v4.2H1576z M1583.2,645c-0.2-0.5-0.3-1-0.4-1.5h1.1c0.1,0.3,0.1,0.6,0.2,0.9L1583.2,645z
	 M1584.8,645.4c0.2,0.3,0.4,0.5,0.7,0.7l-0.6,1c-0.4-0.3-0.8-0.7-1.1-1.1L1584.8,645.4z M1583.7,663.5v0.3h-0.5v-0.3
	c0.1,0,0.2,0,0.2,0C1583.5,663.4,1583.6,663.5,1583.7,663.5z M1583.5,684.9c1.5,0,1.5,1.4,1.5,1.4v2.8h-3v-2.8
	C1582,686.3,1582,684.9,1583.5,684.9z M1584.2,707.5v5.6h-1.4v-5.6H1584.2z M1583.5,746.1c1,0,1.5,0.7,1.5,0.7v6.4h-3v-6.4
	C1582,746.8,1582.5,746.1,1583.5,746.1z M1584.1,767.2v4.2h-1.2v-4.2c0,0,0.1-0.6,0.6-0.6C1583.9,766.6,1584.1,767.2,1584.1,767.2z
	 M1585.9,647.6l0.6-1c0.3,0.1,0.6,0.2,0.9,0.2v1.1C1586.9,648,1586.4,647.9,1585.9,647.6z M1592.7,645l-1-0.6
	c0.1-0.3,0.2-0.6,0.2-0.9h1.1C1593.1,644,1592.9,644.5,1592.7,645z M1594.4,675c-1.1,0.2-1.8,0.6-2.4,1.2
	C1592.5,675.6,1593.2,675.1,1594.4,675z M1592.1,646c-0.3,0.4-0.7,0.8-1.1,1.1l-0.6-1c0.3-0.2,0.5-0.4,0.7-0.7L1592.1,646z
	 M1590.9,686.6v2.5h-1.9v-2.5c0,0,0-1.2,1-1.2C1590.9,685.4,1590.9,686.6,1590.9,686.6z M1588.6,648v-1.1c0.3,0,0.6-0.1,0.9-0.2
	l0.6,1C1589.6,647.9,1589.1,648,1588.6,648z M1617.1,713.6c-1.9,0-3.5-1.6-3.5-3.5c0-1.9,1.6-3.5,3.5-3.5c1.9,0,3.5,1.6,3.5,3.5
	C1620.7,712.1,1619.1,713.6,1617.1,713.6z M1621,712.1v4.6c-1.7-0.5-3.2-1.3-4.6-2.3c0.2,0,0.5,0.1,0.7,0.1
	C1618.8,714.5,1620.3,713.5,1621,712.1z M1612.9,710.8c-1-1.4-1.8-2.9-2.3-4.5h4.5c-1.3,0.7-2.2,2.2-2.2,3.8
	C1612.8,710.4,1612.8,710.6,1612.9,710.8z M1616.3,705.5C1616.3,705.5,1616.3,705.5,1616.3,705.5c0-0.1,0-0.2,0-0.2
	c0.1,0.1,0.3,0.1,0.4,0.2H1616.3z M1616.5,704.4c0.2-0.5,0.5-1,0.9-1.5c0.1,0.8,0.4,1.5,0.7,2.2
	C1617.6,705,1617.1,704.7,1616.5,704.4z M1617.4,700.3c-0.4-0.4-0.7-1-0.9-1.5c0.5-0.3,1-0.5,1.5-0.7
	C1617.8,698.8,1617.5,699.5,1617.4,700.3z M1616.3,698c0-0.1,0-0.1,0-0.2h0.5C1616.6,697.9,1616.4,697.9,1616.3,698z M1617.2,701.2
	h-4c0.8-0.3,1.4-0.9,2.4-1.7l0.1-0.1c0,0,0.1-0.1,0.1-0.1C1616.1,700.1,1616.6,700.8,1617.2,701.2z M1617.2,702
	c-0.7,0.5-1.2,1.2-1.4,1.9c0,0-0.1-0.1-0.1-0.1l-0.1-0.1c-1-0.8-1.7-1.4-2.4-1.7H1617.2z M1615.1,704.4L1615.1,704.4
	c0.2,0.2,0.4,0.3,0.5,0.4c0,0.2-0.1,0.4-0.1,0.5c0,0.1,0,0.1,0,0.2h-5.1c-0.3-1.1-0.4-2.2-0.5-3.4h0.2c0,0.2,0.2,0.4,0.4,0.4
	C1612.7,702.4,1613.2,702.9,1615.1,704.4z M1611.4,766.6c0,0,0.6-3.1,5.2-3.1c4.7,0,5.2,3.1,5.2,3.1v16.7c-3.5-0.1-7-0.3-10.5-0.4
	V766.6z M1622.9,711.8c-0.6-1-0.8-2.1-1-2.8c0.9,0.5,1.9,0.8,3,0.9C1624.6,711,1623.7,711.5,1622.9,711.8z M1625.3,711.1v4.1
	c-0.3-0.8-0.9-1.4-1.7-2.4l-0.1-0.1c0,0-0.1-0.1-0.1-0.1C1624.1,712.2,1624.8,711.8,1625.3,711.1z M1622.1,712c-0.1,0-0.1,0-0.2,0
	v-0.5C1621.9,711.8,1622,711.9,1622.1,712z M1622.6,712.8c0.1,0.1,0.2,0.3,0.3,0.4l0.1,0.1c1.5,1.7,1.9,2.3,2,4.1
	c-1-0.1-2.1-0.2-3-0.5v-4C1622.1,712.9,1622.3,712.9,1622.6,712.8z M1629.4,712c0.1-0.1,0.1-0.3,0.2-0.4v0.4
	C1629.5,712.1,1629.4,712,1629.4,712z M1629.6,712.9v4c-1,0.2-2,0.4-3,0.5c0.1-1.8,0.5-2.4,2-4.1l0.1-0.1c0.1-0.1,0.2-0.3,0.3-0.4
	C1629.1,712.9,1629.3,712.9,1629.6,712.9z M1628.5,711.8c-0.8-0.3-1.7-0.8-2.1-1.9c1.1-0.1,2.1-0.4,3-0.9
	C1629.4,709.7,1629.1,710.8,1628.5,711.8z M1628,712.5c0,0-0.1,0.1-0.1,0.1l-0.1,0.1c-0.8,1-1.4,1.7-1.7,2.4v-4.1
	C1626.6,711.8,1627.3,712.2,1628,712.5z M1629.6,766.6c0,0,0.6-3.1,5.2-3.1c4.7,0,5.2,3.1,5.2,3.1V784c-3.5-0.1-7-0.3-10.5-0.4
	V766.6z M1667.4,771.5v-4.2c0,0,0.1-0.6,0.6-0.6c0.5,0,0.6,0.6,0.6,0.6v4.2H1667.4z M1636.4,706.3h4.5c-0.5,1.6-1.3,3.2-2.3,4.5
	c0-0.2,0.1-0.5,0.1-0.7C1638.6,708.5,1637.7,707.1,1636.4,706.3z M1636.9,705.5c0.1-0.1,0.3-0.1,0.4-0.2c0,0.1,0,0.1,0,0.2H1636.9z
	 M1641.1,705.5h-2.9c0-0.2-0.1-0.4-0.1-0.7c0.1-0.1,0.3-0.2,0.4-0.3l0.1-0.1c1.3-1.1,2-1.6,3-1.9
	C1641.5,703.6,1641.3,704.5,1641.1,705.5z M1638,703.8L1638,703.8c-0.1,0.1-0.2,0.1-0.2,0.2c-0.3-0.7-0.7-1.4-1.4-1.9h4.1
	C1639.6,702.4,1639,703,1638,703.8z M1636.3,701.2c0.7-0.5,1.1-1.2,1.4-1.9c0,0,0.1,0.1,0.1,0.1l0.1,0.1c1,0.8,1.6,1.4,2.4,1.7
	H1636.3z M1637.3,698c-0.1-0.1-0.3-0.1-0.4-0.2h0.5C1637.3,697.8,1637.3,697.9,1637.3,698z M1637,698.8c-0.3,0.9-1,1.9-2.4,2.2
	c-0.1,0-0.2,0.1-0.3,0.2h-0.3c0-1.2-0.4-2.4-0.9-3.4h0.3h0C1633.5,697.8,1635.4,697.9,1637,698.8z M1634.1,702h0.3
	c0.1,0.1,0.2,0.2,0.3,0.2c1.4,0.2,2,1.3,2.4,2.2c-0.4,0.3-0.9,0.5-1.4,0.6c-1.1,0.3-1.9,0.4-2.1,0.4h-0.4
	C1633.7,704.4,1634,703.3,1634.1,702z M1634.3,706.6c1.9,0,3.5,1.6,3.5,3.5c0,1.9-1.6,3.5-3.5,3.5s-3.5-1.6-3.5-3.5
	C1630.8,708.2,1632.3,706.6,1634.3,706.6z M1704.9,755.9v2.3h-4.9v-2.3H1704.9z M1700,754.9v-6.8h2v6.8H1700z M1702.9,754.9v-6.8
	h2.1v6.8H1702.9z M1701.6,776.4C1701.6,776.4,1701.7,776.3,1701.6,776.4c0.5-1.5,1.4-3.2,3.2-4.2c0.9-0.5,2-0.8,3.5-0.8
	c1.4,0,2.6,0.3,3.5,0.8c1.8,1,2.7,2.7,3.2,4.1c0,0,0,0,0,0c0.5,1.4,0.4,2.5,0.4,2.5v8.5c-4.6-0.2-9.4-0.5-14.2-0.7v-7.8
	C1701.2,778.9,1701.2,777.8,1701.6,776.4z M1706.2,695.7v-5.9h1.8v5.9H1706.2z M1713.2,704.3v2.3h-4.9v-2.3H1713.2z M1708.6,695.7
	v-5.9h1.8v5.9H1708.6z M1712,695.7v-5.9h1.8v5.9H1712z M1713.2,707.3v6.8h-2.1v-6.8H1713.2z M1710.4,707.3v6.8h-2v-6.8H1710.4z
	 M1710.8,723.4l2.5,1v1.7h-4.9v-1.7L1710.8,723.4z M1713.2,727.3v6.8h-2.1v-6.8H1713.2z M1710.4,727.3v6.8h-2v-6.8H1710.4z
	 M1710.8,744.3c2.7,0,2.5,2.7,2.5,2.7h-4.9C1708.3,747,1708.1,744.3,1710.8,744.3z M1713.2,755.9v2.3h-4.9v-2.3H1713.2z
	 M1708.3,754.9v-6.8h2v6.8H1708.3z M1711.2,754.9v-6.8h2.1v6.8H1711.2z M1721.6,755.9v2.3h-4.9v-2.3H1721.6z M1716.6,754.9v-6.8h2
	v6.8H1716.6z M1719.5,754.9v-6.8h2.1v6.8H1719.5z M1716.2,695.7h-1.8v-5.9h1.8V695.7z M1737.4,755.9v2.3h-4.9v-2.3H1737.4z
	 M1732.4,754.9v-6.8h2.1v6.8H1732.4z M1735.3,754.9v-6.8h2v6.8H1735.3z M1739,776.4C1739,776.4,1739,776.3,1739,776.4
	c0.5-1.5,1.4-3.2,3.2-4.2c0.9-0.5,2-0.8,3.5-0.8c1.4,0,2.6,0.3,3.5,0.8c1.8,1,2.7,2.7,3.2,4.1c0,0,0,0,0,0c0.5,1.4,0.4,2.5,0.4,2.5
	v10.5c-4.6-0.2-9.3-0.5-14.2-0.7v-9.7C1738.6,778.9,1738.5,777.8,1739,776.4z M1737.8,695.7v-5.9h1.8v5.9H1737.8z M1745.7,704.3v2.3
	h-4.9v-2.3H1745.7z M1743.6,695.7v-5.9h1.8v5.9H1743.6z M1745.7,755.9v2.3h-4.9v-2.3H1745.7z M1740.8,754.9v-6.8h2.1v6.8H1740.8z
	 M1743.6,754.9v-6.8h2v6.8H1743.6z M1740.8,747c0,0-0.2-2.7,2.5-2.7c2.7,0,2.5,2.7,2.5,2.7H1740.8z M1743.2,723.4l2.5,1v1.7h-4.9
	v-1.7L1743.2,723.4z M1740.8,714.1v-6.8h2.1v6.8H1740.8z M1743.6,714.1v-6.8h2v6.8H1743.6z M1745.7,727.3v6.8h-2v-6.8H1745.7z
	 M1742.8,727.3v6.8h-2.1v-6.8H1742.8z M1742,695.7h-1.8v-5.9h1.8V695.7z M1746.1,695.7v-5.9h1.8v5.9H1746.1z M1754,755.9v2.3h-4.9
	v-2.3H1754z M1749.1,754.9v-6.8h2.1v6.8H1749.1z M1763.3,755.9v2.3h-4.9v-2.3H1763.3z M1758.4,754.9v-6.8h2.1v6.8H1758.4z
	 M1761.3,754.9v-6.8h2v6.8H1761.3z M1754,754.9h-2v-6.8h2V754.9z M1764.7,732.5h-1.8v-5.9h1.8V732.5z M1765.4,732.5v-5.9h1.8v5.9
	H1765.4z M1771.6,755.9v2.3h-4.9v-2.3H1771.6z M1766.7,754.9v-6.8h2.1v6.8H1766.7z M1769.6,754.9v-6.8h2v6.8H1769.6z M1769.2,686.6
	c1.5,0,1.3,2.3,1.3,2.3h-2.7C1767.9,688.9,1767.8,686.6,1769.2,686.6z M1767.9,725.7c0,0-0.1-2.3,1.3-2.3c1.5,0,1.3,2.3,1.3,2.3
	H1767.9z M1770.6,726.7v5.9h-1.1v-5.9H1770.6z M1769,726.7v5.9h-1.1v-5.9H1769z M1767.9,714.1v-5.9h1.1v5.9H1767.9z M1769.5,714.1
	v-5.9h1.1v5.9H1769.5z M1770.6,707.3h-2.7c0,0-0.1-2.3,1.3-2.3C1770.7,705,1770.6,707.3,1770.6,707.3z M1767.9,695.7v-5.9h1.1v5.9
	H1767.9z M1769.5,695.7v-5.9h1.1v5.9H1769.5z M1767.9,655.4c0.6,0.5,0.6,1.5,0.6,1.5h-1.2C1767.3,656.9,1767.3,655.9,1767.9,655.4z
	 M1769.2,744.3c2.7,0,2.5,2.7,2.5,2.7h-4.9C1766.7,747,1766.5,744.3,1769.2,744.3z M1765,655.3c1,0.5,0.9,1.5,0.9,1.5h-1.9
	C1764.1,656.8,1764,655.8,1765,655.3z M1765,686.6c2.3,0,2.1,2.3,2.1,2.3h-4.2C1762.9,688.9,1762.7,686.6,1765,686.6z M1767.1,689.9
	v5.9h-1.8v-5.9H1767.1z M1764.7,689.9v5.9h-1.8v-5.9H1764.7z M1765,705c2.3,0,2.1,2.3,2.1,2.3h-4.2
	C1762.9,707.3,1762.7,705,1765,705z M1767.1,708.3v5.9h-1.8v-5.9H1767.1z M1764.7,708.3v5.9h-1.8v-5.9H1764.7z M1765,723.4
	c2.3,0,2.1,2.3,2.1,2.3h-4.2C1762.9,725.7,1762.7,723.4,1765,723.4z M1762.1,655.4c0.6,0.5,0.6,1.5,0.6,1.5h-1.2
	C1761.5,656.9,1761.5,655.9,1762.1,655.4z M1760.8,686.6c1.5,0,1.3,2.3,1.3,2.3h-2.7C1759.5,688.9,1759.4,686.6,1760.8,686.6z
	 M1762.2,689.9v5.9h-1.1v-5.9H1762.2z M1760.6,689.9v5.9h-1.1v-5.9H1760.6z M1760.8,705c1.5,0,1.3,2.3,1.3,2.3h-2.7
	C1759.5,707.3,1759.4,705,1760.8,705z M1762.2,708.3v5.9h-1.1v-5.9H1762.2z M1760.6,708.3v5.9h-1.1v-5.9H1760.6z M1760.8,723.4
	c1.5,0,1.3,2.3,1.3,2.3h-2.7C1759.5,725.7,1759.4,723.4,1760.8,723.4z M1762.2,726.7v5.9h-1.1v-5.9H1762.2z M1760.6,726.7v5.9h-1.1
	v-5.9H1760.6z M1760.9,744.3c2.7,0,2.5,2.7,2.5,2.7h-4.9C1758.4,747,1758.2,744.3,1760.9,744.3z M1754,747h-4.9c0,0-0.2-2.7,2.5-2.7
	C1754.2,744.3,1754,747,1754,747z M1751.5,723.4l2.5,1v1.7h-4.9v-1.7L1751.5,723.4z M1749.1,714.1v-6.8h2.1v6.8H1749.1z M1752,714.1
	v-6.8h2v6.8H1752z M1754,727.3v6.8h-2v-6.8H1754z M1751.1,727.3v6.8h-2.1v-6.8H1751.1z M1754,706.6h-4.9v-2.3h4.9V706.6z
	 M1749.5,695.7v-5.9h1.8v5.9H1749.5z M1751.9,695.7v-5.9h1.8v5.9H1751.9z M1753.7,688.9h-4.2c0,0-0.2-2.3,2.1-2.3
	C1753.9,686.6,1753.7,688.9,1753.7,688.9z M1749.5,662.8c1.6,0,1.6,1.9,1.6,1.9h-3.2C1747.9,664.7,1747.9,662.8,1749.5,662.8z
	 M1747,671.4h0.8v3.3h-0.8V671.4z M1745.7,686.6c2.3,0,2.1,2.3,2.1,2.3h-4.2C1743.6,688.9,1743.5,686.6,1745.7,686.6z M1740.2,662.3
	h0.8v3.3h-0.8V662.3z M1739.9,686.6c2.3,0,2.1,2.3,2.1,2.3h-4.2C1737.8,688.9,1737.6,686.6,1739.9,686.6z M1737.4,747h-4.9
	c0,0-0.2-2.7,2.5-2.7C1737.6,744.3,1737.4,747,1737.4,747z M1737.4,724.5v1.7h-4.9v-1.7l2.5-1L1737.4,724.5z M1735.3,714.1v-6.8h2
	v6.8H1735.3z M1737.4,727.3v6.8h-2v-6.8H1737.4z M1734.5,727.3v6.8h-2.1v-6.8H1734.5z M1734.5,714.1h-2.1v-6.8h2.1V714.1z
	 M1731.9,695.7v-5.9h1.8v5.9H1731.9z M1737.4,704.3v2.3h-4.9v-2.3H1737.4z M1734.4,695.7v-5.9h1.8v5.9H1734.4z M1732.9,670.4
	c0,0,0.1-0.5,1.1-0.6c0.9,0.1,1.1,0.6,1.1,0.6v1.7h-2.1V670.4z M1732.9,672.7h2.1v3.1h-2.1V672.7z M1734,686.6
	c2.3,0,2.1,2.3,2.1,2.3h-4.2C1731.9,688.9,1731.7,686.6,1734,686.6z M1729.4,669.5c0,0,0.1-0.6,1.2-0.7c1.1,0.1,1.2,0.7,1.2,0.7v1.9
	h-2.5V669.5z M1729.4,672.2h2.5v3.6h-2.5V672.2z M1725.6,668.9c0,0,0.2-0.7,1.4-0.8c1.2,0.1,1.4,0.8,1.4,0.8v2.1h-2.7V668.9z
	 M1725.6,671.8h2.7v4h-2.7V671.8z M1727,772.2c5.8,1.9,5.5,7.6,5.5,7.6v8.4c-3.6-0.2-7.3-0.4-11.1-0.6v-7.9
	C1721.5,779.9,1721.2,774.1,1727,772.2z M1722.1,695.7h-1.8v-5.9h1.8V695.7z M1722.1,669.5c0,0,0.1-0.6,1.2-0.7
	c1.1,0.1,1.2,0.7,1.2,0.7v1.9h-2.5V669.5z M1722.1,672.2h2.5v3.6h-2.5V672.2z M1719,670.4c0,0,0.1-0.5,1.1-0.6
	c0.9,0.1,1.1,0.6,1.1,0.6v1.7h-2.1V670.4z M1719,672.7h2.1v3.1h-2.1V672.7z M1720,686.6c2.3,0,2.1,2.3,2.1,2.3h-4.2
	C1717.9,688.9,1717.7,686.6,1720,686.6z M1719.6,689.9v5.9h-1.8v-5.9H1719.6z M1716.6,704.3h4.9v2.3h-4.9V704.3z M1721.6,707.3v6.8
	h-2.1v-6.8H1721.6z M1716.6,707.3h2v6.8h-2V707.3z M1716.6,724.5l2.5-1l2.5,1v1.7h-4.9V724.5z M1721.6,727.3v6.8h-2.1v-6.8H1721.6z
	 M1716.6,727.3h2v6.8h-2V727.3z M1719.1,744.3c2.7,0,2.5,2.7,2.5,2.7h-4.9C1716.6,747,1716.4,744.3,1719.1,744.3z M1713,662.3h0.8
	v3.3h-0.8V662.3z M1714.1,686.6c2.3,0,2.1,2.3,2.1,2.3h-4.2C1712,688.9,1711.8,686.6,1714.1,686.6z M1706.2,671.4h0.8v3.3h-0.8
	V671.4z M1708.3,686.6c2.3,0,2.1,2.3,2.1,2.3h-4.2C1706.2,688.9,1706,686.6,1708.3,686.6z M1704.5,662.8c1.6,0,1.6,1.9,1.6,1.9h-3.2
	C1702.9,664.7,1702.9,662.8,1704.5,662.8z M1702.4,686.6c2.3,0,2.1,2.3,2.1,2.3h-4.2C1700.3,688.9,1700.1,686.6,1702.4,686.6z
	 M1704.5,689.9v5.9h-1.8v-5.9H1704.5z M1702,689.9v5.9h-1.8v-5.9H1702z M1700,704.3h4.9v2.3h-4.9V704.3z M1704.9,707.3v6.8h-2.1
	v-6.8H1704.9z M1700,707.3h2v6.8h-2V707.3z M1700,724.5l2.5-1l2.5,1v1.7h-4.9V724.5z M1704.9,727.3v6.8h-2.1v-6.8H1704.9z
	 M1700,727.3h2v6.8h-2V727.3z M1702.5,744.3c2.7,0,2.5,2.7,2.5,2.7h-4.9C1700,747,1699.8,744.3,1702.5,744.3z M1689.8,767.2
	c0,0,0.1-0.6,0.6-0.6c0.5,0,0.6,0.6,0.6,0.6v4.2h-1.2V767.2z M1686.9,767.2c0,0,0.1-0.6,0.6-0.6c0.5,0,0.6,0.6,0.6,0.6v4.2h-1.2
	V767.2z M1683.9,767.2c0,0,0.1-0.6,0.6-0.6c0.5,0,0.6,0.6,0.6,0.6v4.2h-1.2V767.2z M1675.5,771.5h-1.2v-4.2c0,0,0.1-0.6,0.6-0.6
	c0.5,0,0.6,0.6,0.6,0.6V771.5z M1673.5,686.6c0,0,0-1.2,1-1.2c0.9,0,1,1.2,1,1.2v2.5h-1.9V686.6z M1666.5,686.3c0,0,0-1.4,1.5-1.4
	c1.5,0,1.5,1.4,1.5,1.4v2.8h-3V686.3z M1668.7,707.5v5.6h-1.4v-5.6H1668.7z M1666.5,746.8c0,0,0.5-0.7,1.5-0.7c1,0,1.5,0.7,1.5,0.7
	v6.4h-3V746.8z M1660.5,686.6c0,0,0-1.2,1-1.2c0.9,0,1,1.2,1,1.2v2.5h-1.9V686.6z M1653.3,767.2c0,0,0.1-0.6,0.6-0.6
	c0.5,0,0.6,0.6,0.6,0.6v4.2h-1.2V767.2z M1649.8,767.2c0,0,0.1-0.6,0.6-0.6c0.5,0,0.6,0.6,0.6,0.6v4.2h-1.2V767.2z M1641.6,700.7
	c-1.1-0.2-1.7-0.7-3-1.9l-0.1-0.1c-0.1-0.1-0.3-0.2-0.4-0.3c0.1-0.2,0.1-0.5,0.1-0.7h3C1641.4,698.7,1641.5,699.7,1641.6,700.7z
	 M1640.9,696.9h-4.8c1.5-0.7,2.6-2.2,2.6-4c0-0.2,0-0.5-0.1-0.7C1639.6,693.7,1640.4,695.2,1640.9,696.9z M1637.8,693
	c0,1.9-1.6,3.5-3.5,3.5s-3.5-1.6-3.5-3.5c0-1.9,1.6-3.5,3.5-3.5S1637.8,691,1637.8,693z M1630.4,690.6
	C1630.4,690.6,1630.4,690.6,1630.4,690.6L1630.4,690.6v-4.2c1.7,0.5,3.2,1.3,4.6,2.3c-0.2,0-0.5-0.1-0.7-0.1c-1.7,0-3.2,1-3.9,2.4
	V690.6z M1630.4,712.6C1630.4,712.6,1630.4,712.6,1630.4,712.6v-0.5c0.7,1.4,2.2,2.4,3.9,2.4c0.2,0,0.5,0,0.7-0.1
	c-1.4,1-2.9,1.8-4.6,2.3V712.6z M1628.5,691.3c0.6,1,0.8,2.1,1,2.8c-0.9-0.5-1.9-0.8-3-0.9C1626.8,692.1,1627.7,691.6,1628.5,691.3z
	 M1626.1,692v-4.1c0.3,0.8,0.9,1.4,1.7,2.4l0.1,0.1c0,0,0.1,0.1,0.1,0.1C1627.3,690.9,1626.6,691.3,1626.1,692z M1629.4,691.1
	c0.1,0,0.1,0,0.2,0v0.5C1629.5,691.3,1629.4,691.2,1629.4,691.1z M1628.9,690.3c-0.1-0.1-0.2-0.3-0.3-0.4l-0.1-0.1
	c-1.5-1.7-1.9-2.3-2-4.1c1,0.1,2.1,0.2,3,0.5v4C1629.3,690.2,1629.1,690.2,1628.9,690.3z M1625.7,656c1.5,0,2.6,1.2,2.6,2.7
	c0,1.5-1.2,2.6-2.6,2.6c-1.5,0-2.7-1.2-2.7-2.6C1623.1,657.2,1624.3,656,1625.7,656z M1623.4,690.6c0,0,0.1-0.1,0.1-0.1l0.1-0.1
	c0.8-1,1.4-1.7,1.7-2.4v4.1C1624.8,691.3,1624.1,690.9,1623.4,690.6z M1625,693.2c-1.1,0.1-2.1,0.4-3,0.9c0.1-0.7,0.4-1.8,1-2.8
	C1623.7,691.6,1624.6,692.1,1625,693.2z M1621.9,686.2c1-0.2,2-0.4,3-0.5c-0.1,1.8-0.5,2.4-2,4.1l-0.1,0.1c-0.1,0.1-0.2,0.3-0.3,0.4
	c-0.2-0.1-0.5-0.1-0.7-0.1V686.2z M1621.9,691c0.1,0,0.1,0,0.2,0c-0.1,0.1-0.1,0.3-0.2,0.4V691z M1625.7,697.4
	c2.3,0,4.1,1.9,4.1,4.1c0,2.3-1.8,4.1-4.1,4.1c-2.3,0-4.1-1.8-4.1-4.1C1621.6,699.3,1623.4,697.4,1625.7,697.4z M1621,686.4v4.6
	c-0.7-1.4-2.2-2.4-3.9-2.4c-0.2,0-0.5,0-0.7,0.1C1617.8,687.7,1619.4,686.9,1621,686.4z M1617.1,689.5c1.9,0,3.5,1.6,3.5,3.5
	c0,1.9-1.6,3.5-3.5,3.5c-1.9,0-3.5-1.6-3.5-3.5C1613.6,691,1615.2,689.5,1617.1,689.5z M1612.9,692.3c0,0.2-0.1,0.5-0.1,0.7
	c0,1.8,1.1,3.3,2.6,4h-4.8C1611,695.2,1611.8,693.7,1612.9,692.3z M1610.3,697.8h5.1c0,0.2,0.1,0.4,0.1,0.7
	c-0.1,0.1-0.3,0.2-0.4,0.3l-0.1,0.1c-1.9,1.6-2.4,2-4.6,2c-0.2,0-0.4,0.2-0.4,0.4h-0.2C1609.9,700,1610,698.9,1610.3,697.8z
	 M1600.5,767.2c0,0,0.1-0.6,0.6-0.6c0.5,0,0.6,0.6,0.6,0.6v4.2h-1.2V767.2z M1597,767.2c0,0,0.1-0.6,0.6-0.6c0.5,0,0.6,0.6,0.6,0.6
	v4.2h-1.2V767.2z M1592.7,606.2c0,0,0.1-1.5,1.5-1.5c1.4,0,1.5,1.5,1.5,1.5v7.6h-3V606.2z M1593.1,642.3h-1.1c0-0.3-0.1-0.6-0.2-0.9
	l1-0.6C1592.9,641.3,1593.1,641.8,1593.1,642.3z M1591,638.8c0.4,0.3,0.8,0.7,1.1,1.1l-1,0.6c-0.2-0.3-0.4-0.5-0.7-0.7L1591,638.8z
	 M1588,597.7c0.8,0,1.5,0.7,1.5,1.5c0,0.8-0.7,1.5-1.5,1.5c-0.8,0-1.5-0.7-1.5-1.5C1586.5,598.4,1587.1,597.7,1588,597.7z
	 M1585.9,605.4c0,0,0.1-1.5,2.1-1.5c2,0,2.1,1.5,2.1,1.5v7.6h-4.2V605.4z M1590,638.2l-0.6,1c-0.3-0.1-0.6-0.2-0.9-0.2v-1.1
	C1589.1,637.8,1589.6,638,1590,638.2z M1587.4,637.8v1.1c-0.3,0-0.6,0.1-0.9,0.2l-0.6-1C1586.4,638,1586.9,637.8,1587.4,637.8z
	 M1586.5,639.3c0.3-0.1,0.6-0.2,1-0.3c0.3,0,0.7,0,1,0c0.3,0,0.7,0.1,1,0.3c0.3,0.1,0.6,0.3,0.9,0.5c0.3,0.2,0.5,0.5,0.7,0.7
	c0.2,0.3,0.4,0.6,0.5,0.9c0.1,0.3,0.2,0.7,0.3,1c0,0.2,0,0.3,0,0.5c0,0.2,0,0.4,0,0.5c0,0.3-0.1,0.7-0.3,1c-0.1,0.3-0.3,0.6-0.5,0.9
	c0,0,0,0,0,0c-0.2,0.3-0.4,0.5-0.7,0.7c-0.3,0.2-0.6,0.4-0.9,0.5c-0.3,0.1-0.6,0.2-1,0.3c-0.3,0-0.7,0.1-1,0c-0.3,0-0.7-0.1-1-0.3
	c-0.3-0.1-0.6-0.3-0.9-0.5c-0.3-0.2-0.5-0.4-0.7-0.7c-0.1-0.1-0.2-0.3-0.3-0.4c-0.1-0.2-0.2-0.3-0.2-0.5c-0.1-0.3-0.2-0.6-0.3-1
	c0,0,0,0,0,0v0c0-0.2,0-0.3,0-0.5c0-0.2,0-0.4,0-0.5c0-0.3,0.1-0.7,0.3-1c0.1-0.3,0.3-0.6,0.5-0.9c0.2-0.3,0.5-0.5,0.7-0.7
	C1585.8,639.6,1586.1,639.4,1586.5,639.3z M1584.9,638.8l0.6,1c-0.2,0.2-0.5,0.4-0.7,0.7l-1-0.6
	C1584.1,639.4,1584.5,639.1,1584.9,638.8z M1584.2,641.4c-0.1,0.3-0.2,0.6-0.2,0.9h-1.1c0.1-0.5,0.2-1,0.4-1.5L1584.2,641.4z
	 M1580.3,606.2c0,0,0.1-1.5,1.5-1.5c1.4,0,1.5,1.5,1.5,1.5v7.6h-3V606.2z M1580.4,667.1v0.6h-0.5
	C1579.9,667.7,1580.1,667.4,1580.4,667.1z M1577.9,686.6v2.5h-1.9v-2.5c0,0,0-1.2,1-1.2C1577.9,685.4,1577.9,686.6,1577.9,686.6z
	 M1575.3,622.6h1.2v3.9h-1.2V622.6z M1566.3,767.2c0,0,0.1-0.6,0.6-0.6c0.5,0,0.6,0.6,0.6,0.6v4.2h-1.2V767.2z M1563.4,767.2
	c0,0,0.1-0.6,0.6-0.6c0.5,0,0.6,0.6,0.6,0.6v4.2h-1.2V767.2z M1561.6,767.2v4.2h-0.2v-4.6C1561.5,767,1561.6,767.2,1561.6,767.2z
	 M1405.9,519.3h9.1v4.1h-9.1V519.3z M1407.4,549.8v8.2h-21.9v-8.2H1407.4z M1391.9,519.3h9.1v4.1h-9.1V519.3z M1377.9,519.3h9.1v4.1
	h-9.1V519.3z M1298.9,699.3v7.1h-2.4v-7.1H1298.9z M1296.5,697.7v-3.9h2.4v3.9H1296.5z M1297.7,716.5c0.5,0,1.1,0.1,1.5,0.2v3.2
	c-0.4-0.2-0.9-0.4-1.5-0.4c-0.6,0-1.1,0.2-1.5,0.4v-3.2C1296.6,716.5,1297.1,716.5,1297.7,716.5z M1297.7,720.8
	c0.7,0,1.3,0.5,1.5,0.7v10.2h-3v-10.2C1296.4,721.3,1296.9,720.8,1297.7,720.8z M1296.5,753.3v-6.4h2.4v6.4H1296.5z M1298.9,754.9
	v7.1h-2.4v-7.1H1298.9z M1319.1,754.9v7.1h-2.4v-7.1H1319.1z M1316.7,753.3v-6.4h2.4v6.4H1316.7z M1332.9,720.8
	c0.7,0,1.3,0.5,1.5,0.7v10.2h-3v-10.2C1331.6,721.3,1332.2,720.8,1332.9,720.8z M1331.4,719.8v-3.2c0.5-0.1,1-0.2,1.5-0.2
	c0.6,0,1.1,0.1,1.5,0.2v3.2c-0.4-0.2-0.9-0.4-1.5-0.4C1332.3,719.4,1331.8,719.6,1331.4,719.8z M1331.7,753.3v-6.4h2.4v6.4H1331.7z
	 M1334.1,754.9v7.1h-2.4v-7.1H1334.1z M1335.5,761.9v-7.1h2.4v7.1H1335.5z M1349.2,754.9v7.1h-2.4v-7.1H1349.2z M1346.8,753.3v-6.4
	h2.4v6.4H1346.8z M1350.6,693.8h2.4v3.9h-2.4V693.8z M1350.6,699.3h2.4v7.1h-2.4V699.3z M1352.9,722l0,9.8h-2V722H1352.9z
	 M1350.9,720.6v-3.4c0.3,0.2,0.5,0.4,0.7,0.6c0.9,0.9,1.1,2.1,1.2,2.8H1350.9z M1350.6,746.8h2.4v6.4h-2.4V746.8z M1350.6,754.9h2.4
	v7.1h-2.4V754.9z M1346.8,693.8h2.4v3.9h-2.4V693.8z M1346.8,699.3h2.4v7.1h-2.4V699.3z M1346.5,716.6c0.5-0.1,1-0.2,1.5-0.2
	c0.6,0,1.1,0.1,1.5,0.2v3.2c-0.4-0.2-0.9-0.4-1.5-0.4c-0.6,0-1.1,0.2-1.5,0.4V716.6z M1346.5,721.6c0.2-0.3,0.8-0.7,1.5-0.7
	c0.7,0,1.3,0.5,1.5,0.7v10.2h-3V721.6z M1343,693.8h2.4v3.9h-2.4V693.8z M1343,699.3h2.4v7.1h-2.4V699.3z M1343.1,720.6
	c0.1-0.7,0.4-1.9,1.2-2.8c0.2-0.2,0.5-0.4,0.7-0.6v3.4H1343.1z M1345.1,722v9.8h-2V722H1345.1z M1343,746.8h2.4v6.4h-2.4V746.8z
	 M1343,754.9h2.4v7.1h-2.4V754.9z M1337.9,753.3h-2.4v-6.4h2.4V753.3z M1337.8,731.8h-2V722h2V731.8z M1335.8,720.6v-3.4
	c0.3,0.2,0.5,0.4,0.7,0.6c0.9,0.9,1.1,2.1,1.2,2.8H1335.8z M1335.1,675.5h2v6.4h-2V675.5z M1335.1,700.4h-4.3v-3.5h4.3V700.4z
	 M1331.9,675.5h2v6.4h-2V675.5z M1328.8,675.5h2v6.4h-2V675.5z M1329.3,717.8c0.2-0.2,0.5-0.4,0.7-0.6v3.4h-2
	C1328.2,719.9,1328.4,718.7,1329.3,717.8z M1328,722h2v9.8h-2V722z M1328,746.8h2.4v6.4h-2.4V746.8z M1328,754.9h2.4v7.1h-2.4V754.9
	z M1320.5,693.8h2.4v3.9h-2.4V693.8z M1320.5,699.3h2.4v7.1h-2.4V699.3z M1322.8,722v9.8h-2V722H1322.8z M1320.8,720.6v-3.4
	c0.3,0.2,0.5,0.4,0.7,0.6c0.9,0.9,1.1,2.1,1.2,2.8H1320.8z M1320.5,746.8h2.4v6.4h-2.4V746.8z M1320.5,754.9h2.4v7.1h-2.4V754.9z
	 M1316.7,693.8h2.4v3.9h-2.4V693.8z M1316.7,699.3h2.4v7.1h-2.4V699.3z M1316.4,716.6c0.5-0.1,1-0.2,1.5-0.2c0.6,0,1.1,0.1,1.5,0.2
	v3.2c-0.4-0.2-0.9-0.4-1.5-0.4c-0.6,0-1.1,0.2-1.5,0.4V716.6z M1316.4,721.6c0.2-0.3,0.8-0.7,1.5-0.7c0.7,0,1.3,0.5,1.5,0.7v10.2h-3
	V721.6z M1312.9,693.8h2.4v3.9h-2.4V693.8z M1312.9,699.3h2.4v7.1h-2.4V699.3z M1313,720.6c0.1-0.7,0.4-1.9,1.2-2.8
	c0.2-0.2,0.5-0.4,0.7-0.6v3.4H1313z M1315,722v9.8h-2V722H1315z M1312.9,746.8h2.4v6.4h-2.4V746.8z M1312.9,754.9h2.4v7.1h-2.4
	V754.9z M1300.2,693.8h2.4v3.9h-2.4V693.8z M1300.2,699.3h2.4v7.1h-2.4V699.3z M1302.6,722v9.8h-2V722H1302.6z M1300.6,720.6v-3.4
	c0.3,0.2,0.5,0.4,0.7,0.6c0.9,0.9,1.1,2.1,1.2,2.8H1300.6z M1300.2,746.8h2.4v6.4h-2.4V746.8z M1300.2,754.9h2.4v7.1h-2.4V754.9z
	 M1295.9,676h3.4v4.9h-3.4V676z M1292.7,693.8h2.4v3.9h-2.4V693.8z M1292.7,699.3h2.4v7.1h-2.4V699.3z M1292.8,720.6
	c0.1-0.7,0.3-1.9,1.2-2.8c0.2-0.2,0.5-0.4,0.7-0.6v3.4H1292.8z M1294.7,722v9.8h-2V722H1294.7z M1292.7,746.8h2.4v6.4h-2.4V746.8z
	 M1292.7,754.9h2.4v7.1h-2.4V754.9z M1276.4,588.1c0,0-0.1-2,1.8-2c1.9,0,1.8,2,1.8,2v2.5h-3.7V588.1z M1272.8,697.7v-2.8h2.5v2.8
	H1272.8z M1275.3,699v7.1h-2.5V699H1275.3z M1273.7,674.9h-1.1v-6.1h1.1V674.9z M1273.1,611.1h-1.6V605h1.6V611.1z M1269.4,719.9
	c2,0,1.8,2.8,1.8,2.8v11.1h-3.6v-11.1C1267.6,722.7,1267.4,719.9,1269.4,719.9z M1271.2,694.9v2.8h-3.6v-2.8H1271.2z M1268.6,611.1
	V605h1.6v6.1H1268.6z M1271.2,699v7.1h-3.6V699H1271.2z M1267.5,590.6v-2.5c0,0-0.1-2,1.8-2c1.9,0,1.8,2,1.8,2v2.5H1267.5z
	 M1267.1,577.9h1.6v4.3h-1.6V577.9z M1266.5,565.8c0-1.6,1.3-2.8,2.8-2.8c1.6,0,2.8,1.3,2.8,2.8c0,1.6-1.3,2.8-2.8,2.8
	C1267.8,568.7,1266.5,567.4,1266.5,565.8z M1270,582.2v-4.3h1.6v4.3H1270z M1271.3,548.7h1.3v4.5h-1.3V548.7z M1268.7,548.7h1.3v4.5
	h-1.3V548.7z M1266.1,548.7h1.3v4.5h-1.3V548.7z M1265.7,605h1.6v6.1h-1.6V605z M1265.1,668.8h1.1v6.1h-1.1V668.8z M1263.5,694.9
	h2.5v2.8h-2.5V694.9z M1263.5,699h2.5v7.1h-2.5V699z M1264.7,720.6c1.4,0,1.2,2.1,1.2,2.1v11.1h-2.5v-11.1
	C1263.5,722.7,1263.3,720.6,1264.7,720.6z M1258.7,588.1c0,0-0.1-2,1.8-2c1.9,0,1.8,2,1.8,2v2.5h-3.7V588.1z M1243.7,693.8h2.4v3.9
	h-2.4V693.8z M1243.7,699.3h2.4v7.1h-2.4V699.3z M1246,722v9.8h-2V722H1246z M1244,720.6v-3.4c0.3,0.2,0.5,0.4,0.7,0.6
	c0.9,0.9,1.1,2.1,1.2,2.8H1244z M1243.7,746.8h2.4v6.4h-2.4V746.8z M1243.7,754.9h2.4v7.1h-2.4V754.9z M1239.4,676h3.4v4.9h-3.4V676
	z M1239.9,753.3v-6.4h2.4v6.4H1239.9z M1242.3,754.9v7.1h-2.4v-7.1H1242.3z M1239.6,731.8v-10.2c0.2-0.3,0.8-0.7,1.5-0.7
	c0.7,0,1.3,0.5,1.5,0.7v10.2H1239.6z M1241.1,719.4c-0.6,0-1.1,0.2-1.5,0.4v-3.2c0.5-0.1,1-0.2,1.5-0.2c0.6,0,1.1,0.1,1.5,0.2v3.2
	C1242.2,719.6,1241.7,719.4,1241.1,719.4z M1242.3,699.3v7.1h-2.4v-7.1H1242.3z M1239.9,697.7v-3.9h2.4v3.9H1239.9z M1236.1,693.8
	h2.4v3.9h-2.4V693.8z M1236.1,699.3h2.4v7.1h-2.4V699.3z M1236.2,720.6c0.1-0.7,0.3-1.9,1.2-2.8c0.2-0.2,0.5-0.4,0.7-0.6v3.4H1236.2
	z M1238.2,722v9.8h-2V722H1238.2z M1236.1,746.8h2.4v6.4h-2.4V746.8z M1236.1,754.9h2.4v7.1h-2.4V754.9z M1219.7,693.8h2.4v3.9h-2.4
	V693.8z M1219.7,699.3h2.4v7.1h-2.4V699.3z M1222,722v9.8h-2V722H1222z M1220,720.6v-3.4c0.3,0.2,0.5,0.4,0.7,0.6
	c0.9,0.9,1.1,2.1,1.2,2.8H1220z M1219.7,746.8h2.4v6.4h-2.4V746.8z M1219.7,754.9h2.4v7.1h-2.4V754.9z M1215.4,676h3.4v4.9h-3.4V676
	z M1215.9,753.3v-6.4h2.4v6.4H1215.9z M1218.3,754.9v7.1h-2.4v-7.1H1218.3z M1215.6,731.8v-10.2c0.2-0.3,0.8-0.7,1.5-0.7
	c0.7,0,1.3,0.5,1.5,0.7v10.2H1215.6z M1217.1,719.4c-0.6,0-1.1,0.2-1.5,0.4v-3.2c0.5-0.1,1-0.2,1.5-0.2c0.6,0,1.1,0.1,1.5,0.2v3.2
	C1218.2,719.6,1217.7,719.4,1217.1,719.4z M1218.3,699.3v7.1h-2.4v-7.1H1218.3z M1215.9,697.7v-3.9h2.4v3.9H1215.9z M1212.1,693.8
	h2.4v3.9h-2.4V693.8z M1212.1,699.3h2.4v7.1h-2.4V699.3z M1212.2,720.6c0.1-0.7,0.3-1.9,1.2-2.8c0.2-0.2,0.5-0.4,0.7-0.6v3.4H1212.2
	z M1214.2,722v9.8h-2V722H1214.2z M1212.1,746.8h2.4v6.4h-2.4V746.8z M1212.1,754.9h2.4v7.1h-2.4V754.9z M1261.5,758.4
	c0,0-0.2-8.5,7.9-8.5c8,0,7.9,8.5,7.9,8.5V774c-3,0-5.9-0.1-8.9-0.1c-2.3,0-4.6-0.1-6.9-0.1V758.4z M825.3,639.4
	c0,0.4,0.1,1,0.1,1.7h-0.5v-2.6L825.3,639.4z M836.6,598.9h-0.2c-0.3-0.9-0.7-2.5-0.9-4.7h1.1V598.9z M842.4,616.4
	c-0.2-0.4-0.3-0.7-0.6-1.1h0.6V616.4z M836.6,604.8v1.7C836.2,605.8,836.3,605.2,836.6,604.8L836.6,604.8z M830.7,735.6v-4.3h1.2
	v4.3H830.7z M832,711h-1.2v-0.8h1.2V711z M832,692.4h-1.2v-3.3h1.2V692.4z M831.3,763h0.6v2.2h-0.6V763z M835.3,763L835.3,763
	l0.1,2.2h-0.1V763z M836.5,763L836.5,763l0.1,2.2h-0.1V763z M840.5,763v2.2H839V763H840.5z M839,731.3h2.5v4.3H839V731.3z
	 M839,710.2h2.5v0.8H839V710.2z M841.5,689.1v3.3H839v-3.3H841.5z M835.4,617.1c0.4,0,0.8,0.1,1.2,0.1v2.7h-0.3
	c-0.1-0.2-0.3-0.4-0.8-0.4c-0.1,0-0.1,0-0.2,0L835.4,617.1C835.3,617.1,835.4,617.1,835.4,617.1z M832,620h-0.7
	c0.1-0.4,0.4-0.9,0.7-1.3V620z M832,625.8v4.7H831v-4.7H832z M832,693.7v0.2h-1.2v-0.2H832z M832,699.8v4.5h-1.2v-4.5H832z
	 M832,724.5v1h-1.2v-1H832z M832,743v3.5h-1.2V743H832z M831.3,766.3h0.6v1.3h-0.6V766.3z M835.3,767.6v-1.3h0.1L835.3,767.6
	L835.3,767.6z M836.5,766.3L836.5,766.3l0.1,1.3h-0.1V766.3z M839,767.6v-1.3h1.6v1.3H839z M839,746.5V743h2.5v3.5H839z M839,725.4
	v-1h2.5v1H839z M839,704.4v-4.5h2.5v4.5H839z M839,693.8v-0.2h2.5v0.2H839z M839,630.5v-4.7h0.8v4.7H839z M839,620v-1.1
	c0.2,0.4,0.4,0.7,0.5,1.1H839z M819,659.7C819,659.7,819,659.8,819,659.7L819,659.7C819,659.7,819,659.7,819,659.7z M815.3,746.5
	v-4.7h1.2v4.7H815.3z M816.6,752.4v4.7h-1.2v-4.7H816.6z M815.3,736v-4.7h1.2v4.7H815.3z M815.3,725.4v-4.7h1.2v4.7H815.3z
	 M815.3,714.9v-4.7h1.2v4.7H815.3z M815.3,704.4v-4.7h1.2v4.7H815.3z M815.3,693.8v-4.7h1.2v4.7H815.3z M815.3,683.3v-4.7h1.2v4.7
	H815.3z M815.3,672.7V668h1.2v4.7H815.3z M815.3,763h1.2v4.7h-1.2V763z M864.8,770.5v-4.1h4.1v4.1H864.8z M898.3,770.5v-4.1h4.1v4.1
	H898.3z M965.2,765.1V761h4.1v4.1H965.2z M969.3,766.3v4.1h-4.1v-4.1H969.3z M969,692.4h-4.7v-5h4.7V692.4z M969,693.7v5h-4.7v-5
	H969z M969,699.8v5h-4.7v-5H969z M969,706v5h-4.7v-5H969z M969,724.5v5h-4.7v-5H969z M969,730.6v5h-4.7v-5H969z M969,736.8v5h-4.7
	v-5H969z M969,743v5h-4.7v-5H969z M975.4,699.8v5h-4.7v-5H975.4z M970.7,698.6v-5h4.7v5H970.7z M975.4,706v5h-4.7v-5H975.4z
	 M975.4,724.5v5h-4.7v-5H975.4z M975.4,730.6v5h-4.7v-5H975.4z M975.4,736.8v5h-4.7v-5H975.4z M975.4,743v5h-4.7v-5H975.4z
	 M974.4,761v4.1h-4.1V761H974.4z M974.4,766.3v4.1h-4.1v-4.1H974.4z M1010.1,709.8h-7.2c0,0,0.1-1.1-0.3-1.5V699l-0.1-17.9
	c0,0,0.7-0.2,0.7-1.5c0-1.3,0.3-3.8,3.3-3.8c3,0,3.3,2.5,3.3,3.8c0,1.3,0.7,1.5,0.7,1.5l-0.1,17.9v9.2
	C1010.1,708.6,1010.1,709.8,1010.1,709.8z M1006.6,739.5c9.8,0,9.6,8.2,9.6,8.2v23.8c-6.4,0-12.8,0-19.1,0v-23.8
	C997,747.8,996.8,739.5,1006.6,739.5z M1042.7,766.3v4.1h-4.1v-4.1H1042.7z M1038.7,765.1V761h4.1v4.1H1038.7z M1048.8,693.7v5h-4.7
	v-5H1048.8z M1044.1,692.4v-5h4.7v5H1044.1z M1048.8,699.8v5h-4.7v-5H1048.8z M1048.8,706v5h-4.7v-5H1048.8z M1048.8,724.5v5h-4.7
	v-5H1048.8z M1048.8,730.6v5h-4.7v-5H1048.8z M1048.8,736.8v5h-4.7v-5H1048.8z M1048.8,743v5h-4.7v-5H1048.8z M1047.9,761v4.1h-4.1
	V761H1047.9z M1047.9,766.3v4.1h-4.1v-4.1H1047.9z M1072.2,770.5v-4.1h4.1v4.1H1072.2z M935.8,770.5h-4.1v-4.1h4.1V770.5z
	 M1105.6,770.5v-4.1h4.1v4.1H1105.6z M1139.1,770.5v-4.1h4.1v4.1H1139.1z M1176.6,766.3v4.1h-4.1v-4.1H1176.6z M1172.6,765.1V761
	h4.1v4.1H1172.6z M1182.7,699.8v5h-4.7v-5H1182.7z M1178,698.6v-5h4.7v5H1178z M1182.7,706v5h-4.7v-5H1182.7z M1182.7,724.5v5h-4.7
	v-5H1182.7z M1182.7,730.6v5h-4.7v-5H1182.7z M1182.7,736.8v5h-4.7v-5H1182.7z M1182.7,743v5h-4.7v-5H1182.7z M1181.8,761v4.1h-4.1
	V761H1181.8z M1181.8,766.3v4.1h-4.1v-4.1H1181.8z M1182.7,692.4h-4.7v-5h4.7V692.4z M1173.3,621.4c0,0,0-4.2,4.4-4.2
	c4.4,0,4.4,4.2,4.4,4.2v14.5h-2c-0.2-0.7-0.5-2.2-0.4-3.5c0.1-1.8,0.4-3,0.2-4.5c-0.2-1.5,0.6-3.2,0-3.9c-0.6-0.8-1.7-1.2-1.6-2
	c0-0.7,0.7-2.4-0.7-2.4c-1.4,0-0.7,1.9-0.8,2.3c-0.1,0.4-1,0.3-1.1,1.2c-0.1,0.8-0.7,1.4-0.5,2.5c0.2,1.1,0.6,2,0.4,2.5
	c-0.2,0.5-0.7,2.3-0.1,3.9c0.5,1.3,0.1,2.8-0.2,3.8h-2.1V621.4z M1171.6,687.5h4.7v5h-4.7V687.5z M1171.6,693.7h4.7v5h-4.7V693.7z
	 M1171.6,699.8h4.7v5h-4.7V699.8z M1171.6,706h4.7v5h-4.7V706z M1171.6,724.5h4.7v5h-4.7V724.5z M1171.6,730.6h4.7v5h-4.7V730.6z
	 M1171.6,736.8h4.7v5h-4.7V736.8z M1171.6,743h4.7v5h-4.7V743z M1144.6,687.5h4.7v5h-4.7V687.5z M1144.6,693.7h4.7v5h-4.7V693.7z
	 M1144.6,699.8h4.7v5h-4.7V699.8z M1144.6,706h4.7v5h-4.7V706z M1144.6,724.5h4.7v5h-4.7V724.5z M1144.6,730.6h4.7v5h-4.7V730.6z
	 M1144.6,736.8h4.7v5h-4.7V736.8z M1144.6,743h4.7v5h-4.7V743z M1144.2,761h4.1v4.1h-4.1V761z M1144.2,766.3h4.1v4.1h-4.1V766.3z
	 M1143.2,765.1h-4.1V761h4.1V765.1z M1138.2,687.5h4.7v5h-4.7V687.5z M1138.2,693.7h4.7v5h-4.7V693.7z M1138.2,699.8h4.7v5h-4.7
	V699.8z M1138.2,706h4.7v5h-4.7V706z M1138.2,724.5h4.7v5h-4.7V724.5z M1138.2,730.6h4.7v5h-4.7V730.6z M1138.2,736.8h4.7v5h-4.7
	V736.8z M1138.2,743h4.7v5h-4.7V743z M1111.1,687.5h4.7v5h-4.7V687.5z M1111.1,693.7h4.7v5h-4.7V693.7z M1111.1,699.8h4.7v5h-4.7
	V699.8z M1111.1,706h4.7v5h-4.7V706z M1111.1,724.5h4.7v5h-4.7V724.5z M1111.1,730.6h4.7v5h-4.7V730.6z M1111.1,736.8h4.7v5h-4.7
	V736.8z M1111.1,743h4.7v5h-4.7V743z M1110.8,761h4.1v4.1h-4.1V761z M1110.8,766.3h4.1v4.1h-4.1V766.3z M1109.7,765.1h-4.1V761h4.1
	V765.1z M1104.7,687.5h4.7v5h-4.7V687.5z M1104.7,693.7h4.7v5h-4.7V693.7z M1104.7,699.8h4.7v5h-4.7V699.8z M1104.7,706h4.7v5h-4.7
	V706z M1104.7,724.5h4.7v5h-4.7V724.5z M1104.7,730.6h4.7v5h-4.7V730.6z M1104.7,736.8h4.7v5h-4.7V736.8z M1104.7,743h4.7v5h-4.7
	V743z M1077.6,687.5h4.7v5h-4.7V687.5z M1077.6,693.7h4.7v5h-4.7V693.7z M1077.6,699.8h4.7v5h-4.7V699.8z M1077.6,706h4.7v5h-4.7
	V706z M1077.6,724.5h4.7v5h-4.7V724.5z M1077.6,730.6h4.7v5h-4.7V730.6z M1077.6,736.8h4.7v5h-4.7V736.8z M1077.6,743h4.7v5h-4.7
	V743z M1077.3,761h4.1v4.1h-4.1V761z M1077.3,766.3h4.1v4.1h-4.1V766.3z M1076.2,765.1h-4.1V761h4.1V765.1z M1071.2,687.5h4.7v5
	h-4.7V687.5z M1071.2,693.7h4.7v5h-4.7V693.7z M1071.2,699.8h4.7v5h-4.7V699.8z M1071.2,706h4.7v5h-4.7V706z M1071.2,724.5h4.7v5
	h-4.7V724.5z M1071.2,730.6h4.7v5h-4.7V730.6z M1071.2,736.8h4.7v5h-4.7V736.8z M1071.2,743h4.7v5h-4.7V743z M1040.2,621.4
	c0,0,0-4.2,4.4-4.2c4.4,0,4.4,4.2,4.4,4.2v14.5h-2c-0.4-1-0.8-2.3-0.3-3.8c0.6-1.6,0.1-3.4-0.1-3.9c-0.2-0.5,0.2-1.4,0.4-2.5
	c0.2-1.1-0.4-1.7-0.5-2.5c-0.1-0.8-0.9-0.7-1.1-1.2c-0.1-0.4,0.6-2.3-0.8-2.3c-1.4,0-0.7,1.7-0.7,2.4c0,0.7-1.1,1.2-1.6,2
	c-0.6,0.8,0.2,2.4,0,3.9c-0.2,1.5,0.1,2.7,0.2,4.5c0.1,1.4-0.2,2.9-0.4,3.5h-2V621.4z M1037.7,687.5h4.7v5h-4.7V687.5z
	 M1037.7,693.7h4.7v5h-4.7V693.7z M1037.7,699.8h4.7v5h-4.7V699.8z M1037.7,706h4.7v5h-4.7V706z M1037.7,724.5h4.7v5h-4.7V724.5z
	 M1037.7,730.6h4.7v5h-4.7V730.6z M1037.7,736.8h4.7v5h-4.7V736.8z M1037.7,743h4.7v5h-4.7V743z M1015.9,675.8
	c2.5,0,2.7,2.5,2.7,3.8c0,1.3,0.6,1.5,0.6,1.5l-0.1,17.9v9.2c-0.3,0.4-0.3,1.5-0.3,1.5h-5.9c0,0,0.1-1.1-0.3-1.5V699l-0.1-17.9
	c0,0,0.6-0.2,0.6-1.5C1013.2,678.3,1013.4,675.8,1015.9,675.8z M1011.5,583h-0.6c0-0.6-0.2-1.2-0.4-1.7l0.5-0.3
	C1011.2,581.6,1011.4,582.3,1011.5,583z M1010.5,585.2c0.3-0.5,0.4-1.1,0.4-1.7h0.6c0,0.7-0.2,1.4-0.5,2L1010.5,585.2z
	 M1010.7,585.9c-0.4,0.6-0.9,1.1-1.4,1.4l-0.3-0.5c0.5-0.3,0.9-0.7,1.2-1.2L1010.7,585.9z M1009.2,579.1c0.6,0.4,1.1,0.9,1.4,1.4
	l-0.5,0.3c-0.3-0.5-0.7-0.9-1.2-1.2L1009.2,579.1z M1006.8,578.4c0.7,0,1.4,0.2,2,0.5l-0.3,0.5c-0.5-0.3-1.1-0.4-1.7-0.4V578.4z
	 M1006.6,584.1c0.1,0,0.3-0.1,0.3-0.3v-0.3h1.7c0,0.1,0,0.1,0.1,0.2l0.3,0.2c0,0,0.1,0,0.1,0c0,0,0.1,0,0.1,0l0.9-0.4c0,0,0,0,0,0
	c0,0,0,0,0,0c0,0,0,0,0,0c0,0,0,0,0,0c0,0,0,0,0,0c0,0,0,0,0,0c0,0,0,0,0,0v-0.1c0,0,0,0,0,0c0,0,0,0,0,0c0,0,0,0,0,0c0,0,0,0,0,0
	c0,0,0,0,0,0c0,0,0,0,0,0c0,0,0,0,0,0l-0.9-0.4c-0.1,0-0.2,0-0.3,0l-0.3,0.2c-0.1,0-0.1,0.1-0.1,0.2h-1.7v-2c0.1,0,0.1-0.1,0.1-0.1
	l0.2-0.3c0-0.1,0-0.1,0-0.2l-0.3-0.9c2,0.1,3.6,1.8,3.6,3.8c0,2.1-1.7,3.8-3.8,3.8c-2.1,0-3.8-1.7-3.8-3.8c0-2,1.6-3.7,3.6-3.8
	l-0.3,0.9c0,0.1,0,0.1,0,0.2l0.2,0.3c0,0.1,0.1,0.1,0.1,0.1v2h-0.3c-0.2,0-0.3,0.1-0.3,0.3c0,0.1,0.1,0.3,0.3,0.3h0.3v0.3
	C1006.3,584,1006.4,584.1,1006.6,584.1z M1008.8,587.6c-0.6,0.3-1.3,0.5-2,0.5v-0.5c0.6,0,1.2-0.2,1.7-0.4L1008.8,587.6z
	 M1006.3,587.6v0.5c-0.7,0-1.4-0.2-2-0.5l0.3-0.5C1005.1,587.4,1005.7,587.6,1006.3,587.6z M1004.2,586.9l-0.3,0.5
	c-0.6-0.4-1.1-0.9-1.4-1.4l0.5-0.3C1003.2,586.2,1003.7,586.6,1004.2,586.9z M1006.3,578.4v0.6c-0.6,0-1.2,0.2-1.7,0.4l-0.3-0.5
	C1004.9,578.6,1005.6,578.4,1006.3,578.4z M1003.9,579.1l0.3,0.5c-0.5,0.3-0.9,0.7-1.2,1.2l-0.5-0.3
	C1002.8,580,1003.3,579.5,1003.9,579.1z M1002.2,581l0.5,0.3c-0.3,0.5-0.4,1.1-0.4,1.7h-0.6C1001.7,582.3,1001.9,581.6,1002.2,581z
	 M1002.2,583.5c0,0.6,0.2,1.2,0.4,1.7l-0.5,0.3c-0.3-0.6-0.5-1.3-0.5-2H1002.2z M1006.6,612.5L1006.6,612.5c7,0,6.7,6.6,6.7,6.6V638
	h-2c-0.4-0.2-1.1-0.4-2.1-0.5c0-1.2-0.2-2.9-0.3-3.4c-0.2-0.7,0.5-1.7,0.4-3.2c-0.1-1.5-0.3-2-0.4-3.6c0-1.7,0.5-1.9,1.1-2.7
	c0.6-0.8,0.6-1.9-0.2-3.8c-0.9-1.9-1.7-0.3-1.8-0.4c-0.1-0.2-0.5-1.1-0.2-1.4c0.3-0.3,0.6-2-1.1-2c-1.7,0-1.3,2-1,2.5
	c0.2,0.6-0.1,0.7-1,1.3c-0.9,0.5-1.3,2.6-1.1,3.2c0.3,0.7,0.5,2.2-0.2,3.9c-0.7,1.7,0.7,4.3,0,6.1c-0.5,1.3-0.4,2.9-0.3,3.8
	c0,0,0,0-0.1,0c-0.4,0.1-0.8,0.2-1,0.3h-2v-18.9C999.9,619.1,999.6,612.5,1006.6,612.5z M994.5,679.6c0-1.3,0.2-3.8,2.7-3.8
	c2.5,0,2.7,2.5,2.7,3.8c0,1.3,0.6,1.5,0.6,1.5l-0.1,17.9v9.2c-0.3,0.4-0.3,1.5-0.3,1.5h-5.9c0,0,0.1-1.1-0.3-1.5V699l-0.1-17.9
	C993.9,681.1,994.5,680.9,994.5,679.6z M975.4,687.5v5h-4.7v-5H975.4z M964.2,621.4c0,0,0-4.2,4.4-4.2c4.4,0,4.4,4.2,4.4,4.2v14.5
	h-1.4c0-0.4-0.2-0.7-0.3-1.5c-0.2-1,0.1-2.8,0.3-4c0.2-1.2,0.1-2.3,0.2-2.9c0.1-0.6-0.8-1.5-1.2-1.9c-0.3-0.4,0.1-0.7-0.1-1.9
	c-0.3-1.2-1.4-1-1.4-1.3c0-0.3,1.5-2.8-0.7-2.8c-2.2,0-0.7,3.1-1.5,2.7c-0.8-0.4-0.8,0.8-1.1,1.2s-0.2,1.1,0,2.6
	c0.2,1.4,0.4,5.9,0.4,7.1c0,0.9-0.2,2.2-0.2,2.6h-1.8V621.4z M937.2,687.5h4.7v5h-4.7V687.5z M937.2,693.7h4.7v5h-4.7V693.7z
	 M937.2,699.8h4.7v5h-4.7V699.8z M937.2,706h4.7v5h-4.7V706z M937.2,724.5h4.7v5h-4.7V724.5z M937.2,730.6h4.7v5h-4.7V730.6z
	 M937.2,736.8h4.7v5h-4.7V736.8z M937.2,743h4.7v5h-4.7V743z M936.9,761h4.1v4.1h-4.1V761z M936.9,766.3h4.1v4.1h-4.1V766.3z
	 M935.8,765.1h-4.1V761h4.1V765.1z M930.8,687.5h4.7v5h-4.7V687.5z M930.8,693.7h4.7v5h-4.7V693.7z M930.8,699.8h4.7v5h-4.7V699.8z
	 M930.8,706h4.7v5h-4.7V706z M930.8,724.5h4.7v5h-4.7V724.5z M930.8,730.6h4.7v5h-4.7V730.6z M930.8,736.8h4.7v5h-4.7V736.8z
	 M930.8,743h4.7v5h-4.7V743z M903.7,687.5h4.7v5h-4.7V687.5z M903.7,693.7h4.7v5h-4.7V693.7z M903.7,699.8h4.7v5h-4.7V699.8z
	 M903.7,706h4.7v5h-4.7V706z M903.7,724.5h4.7v5h-4.7V724.5z M903.7,730.6h4.7v5h-4.7V730.6z M903.7,736.8h4.7v5h-4.7V736.8z
	 M903.7,743h4.7v5h-4.7V743z M903.4,761h4.1v4.1h-4.1V761z M903.4,766.3h4.1v4.1h-4.1V766.3z M902.3,765.1h-4.1V761h4.1V765.1z
	 M897.3,687.5h4.7v5h-4.7V687.5z M897.3,693.7h4.7v5h-4.7V693.7z M897.3,699.8h4.7v5h-4.7V699.8z M897.3,706h4.7v5h-4.7V706z
	 M897.3,724.5h4.7v5h-4.7V724.5z M897.3,730.6h4.7v5h-4.7V730.6z M897.3,736.8h4.7v5h-4.7V736.8z M897.3,743h4.7v5h-4.7V743z
	 M870.3,687.5h4.7v5h-4.7V687.5z M870.3,693.7h4.7v5h-4.7V693.7z M870.3,699.8h4.7v5h-4.7V699.8z M870.3,706h4.7v5h-4.7V706z
	 M870.3,724.5h4.7v5h-4.7V724.5z M870.3,730.6h4.7v5h-4.7V730.6z M870.3,736.8h4.7v5h-4.7V736.8z M870.3,743h4.7v5h-4.7V743z
	 M870,761h4.1v4.1H870V761z M870,766.3h4.1v4.1H870V766.3z M868.9,765.1h-4.1V761h4.1V765.1z M863.9,687.5h4.7v5h-4.7V687.5z
	 M863.9,693.7h4.7v5h-4.7V693.7z M863.9,699.8h4.7v5h-4.7V699.8z M863.9,706h4.7v5h-4.7V706z M863.9,724.5h4.7v5h-4.7V724.5z
	 M863.9,730.6h4.7v5h-4.7V730.6z M863.9,736.8h4.7v5h-4.7V736.8z M863.9,743h4.7v5h-4.7V743z M839,583.7h3.4v4.7H839V583.7z
	 M839,594.2h3.4v4.7H839V594.2z M839,604.8h3.4v4.7H839V604.8z M835.3,583.7h1.2v4.7h-1.2V583.7z M830.7,583.7h1.2v4.7h-1.2V583.7z
	 M830.7,594.2h1.2v4.7h-1.2V594.2z M830.7,604.8h1.2v4.7h-1.2V604.8z M824.9,583.7h3.4v4.7h-3.4V583.7z M824.9,594.2h3.4v4.7h-3.4
	V594.2z M824.9,604.8h3.4v4.7h-3.4V604.8z M824.9,615.3h3.4v1.3c-0.6,1.5-0.7,2.7-0.7,2.7h-0.9v0.6h-1.8V615.3z M824.9,625.8h2.5
	v2.2c0,1.1-1.7,2.1-1.7,2.1v0.4h-0.8V625.8z M819,583.7h3.4v4.7H819V583.7z M819,594.2h3.4v4.7H819V594.2z M819,604.8h3.4v4.7H819
	V604.8z M819,615.3h3.4v4.7H819V615.3z M819,625.8h3.4v4.7H819V625.8z M819,636.4h3.4v4.7H819V636.4z M821.1,646.9
	c-0.4,1.2-0.3,2.4-0.3,2.4c-0.7,0.4-1.3,0.9-1.8,1.3v-3.8H821.1z M815.3,583.7h1.2v4.7h-1.2V583.7z M815.3,594.2h1.2v4.7h-1.2V594.2
	z M815.3,604.8h1.2v4.7h-1.2V604.8z M815.3,615.3h1.2v4.7h-1.2V615.3z M815.3,625.8h1.2v4.7h-1.2V625.8z M815.3,636.4h1.2v4.7h-1.2
	V636.4z M815.3,646.9h1.2v4.7h-1.2V646.9z M815.3,657.5h1.2v4.7h-1.2V657.5z M810.9,583.7h1.3v4.7h-1.3V583.7z M810.9,594.2h1.3v4.7
	h-1.3V594.2z M810.9,604.8h1.3v4.7h-1.3V604.8z M810.9,615.3h1.3v4.7h-1.3V615.3z M810.9,625.8h1.3v4.7h-1.3V625.8z M810.9,636.4
	h1.3v4.7h-1.3V636.4z M810.9,646.9h1.3v4.7h-1.3V646.9z M810.9,657.5h1.3v4.7h-1.3V657.5z M810.9,668h1.3v4.7h-1.3V668z
	 M810.9,678.6h1.3v4.7h-1.3V678.6z M810.9,689.1h1.3v4.7h-1.3V689.1z M810.9,699.7h1.3v4.7h-1.3V699.7z M810.9,710.2h1.3v4.7h-1.3
	V710.2z M810.9,720.8h1.3v4.7h-1.3V720.8z M810.9,731.3h1.3v4.7h-1.3V731.3z M810.9,741.9h1.3v4.7h-1.3V741.9z M810.9,752.4h1.3v4.7
	h-1.3V752.4z M810.9,763h1.3v4.7h-1.3V763z M805,583.7h3.4v4.7H805V583.7z M805,594.2h3.4v4.7H805V594.2z M805,604.8h3.4v4.7H805
	V604.8z M805,615.3h3.4v4.7H805V615.3z M805,625.8h3.4v4.7H805V625.8z M805,636.4h3.4v4.7H805V636.4z M805,646.9h3.4v4.7H805V646.9z
	 M805,657.5h3.4v4.7H805V657.5z M805,668h3.4v4.7H805V668z M805,678.6h3.4v4.7H805V678.6z M805,689.1h3.4v4.7H805V689.1z M805,699.7
	h3.4v4.7H805V699.7z M805,710.2h3.4v4.7H805V710.2z M805,720.8h3.4v4.7H805V720.8z M805,731.3h3.4v4.7H805V731.3z M805,741.9h3.4
	v4.7H805V741.9z M805,752.4h3.4v4.7H805V752.4z M805,763h3.4v4.7H805V763z M765.6,583.7h3.4v4.7h-3.4V583.7z M765.6,594.2h3.4v4.7
	h-3.4V594.2z M765.6,604.8h3.4v4.7h-3.4V604.8z M765.6,615.3h3.4v4.7h-3.4V615.3z M765.6,625.8h3.4v4.7h-3.4V625.8z M765.6,636.4
	h3.4v4.7h-3.4V636.4z M765.6,646.9h3.4v4.7h-3.4V646.9z M765.6,657.5h3.4v4.7h-3.4V657.5z M765.6,668h3.4v4.7h-3.4V668z
	 M765.6,678.6h3.4v4.7h-3.4V678.6z M765.6,689.1h3.4v4.7h-3.4V689.1z M765.6,699.7h3.4v4.7h-3.4V699.7z M765.6,710.2h3.4v4.7h-3.4
	V710.2z M765.6,720.8h3.4v4.7h-3.4V720.8z M765.6,731.3h3.4v4.7h-3.4V731.3z M765.6,741.9h3.4v4.7h-3.4V741.9z M765.6,752.4h3.4v4.7
	h-3.4V752.4z M765.6,763h3.4v4.7h-3.4V763z M761.9,583.7h1.2v4.7h-1.2V583.7z M761.9,594.2h1.2v4.7h-1.2V594.2z M761.9,604.8h1.2
	v4.7h-1.2V604.8z M761.9,615.3h1.2v4.7h-1.2V615.3z M761.9,625.8h1.2v4.7h-1.2V625.8z M761.9,636.4h1.2v4.7h-1.2V636.4z
	 M761.9,646.9h1.2v4.7h-1.2V646.9z M761.9,657.5h1.2v4.7h-1.2V657.5z M761.9,668h1.2v4.7h-1.2V668z M761.9,678.6h1.2v4.7h-1.2V678.6
	z M761.9,689.1h1.2v4.7h-1.2V689.1z M761.9,699.7h1.2v4.7h-1.2V699.7z M761.9,710.2h1.2v4.7h-1.2V710.2z M761.9,720.8h1.2v4.7h-1.2
	V720.8z M761.9,731.3h1.2v4.7h-1.2V731.3z M761.9,741.9h1.2v4.7h-1.2V741.9z M761.9,752.4h1.2v4.7h-1.2V752.4z M761.9,763h1.2v4.7
	h-1.2V763z M757.5,583.7h1.3v4.7h-1.3V583.7z M757.5,594.2h1.3v4.7h-1.3V594.2z M757.5,604.8h1.3v4.7h-1.3V604.8z M757.5,615.3h1.3
	v4.7h-1.3V615.3z M757.5,625.8h1.3v4.7h-1.3V625.8z M757.5,636.4h1.3v4.7h-1.3V636.4z M757.5,646.9h1.3v4.7h-1.3V646.9z
	 M757.5,657.5h1.3v4.7h-1.3V657.5z M757.5,668h1.3v4.7h-1.3V668z M757.5,678.6h1.3v4.7h-1.3V678.6z M757.5,689.1h1.3v4.7h-1.3V689.1
	z M757.5,699.7h1.3v4.7h-1.3V699.7z M757.5,710.2h1.3v4.7h-1.3V710.2z M757.5,720.8h1.3v4.7h-1.3V720.8z M757.5,731.3h1.3v4.7h-1.3
	V731.3z M757.5,741.9h1.3v4.7h-1.3V741.9z M757.5,752.4h1.3v4.7h-1.3V752.4z M757.5,763h1.3v4.7h-1.3V763z M751.6,583.7h3.4v4.7
	h-3.4V583.7z M751.6,594.2h3.4v4.7h-3.4V594.2z M751.6,604.8h3.4v4.7h-3.4V604.8z M751.6,615.3h3.4v4.7h-3.4V615.3z M751.6,625.8
	h3.4v4.7h-3.4V625.8z M751.6,636.4h3.4v4.7h-3.4V636.4z M751.6,646.9h3.4v4.7h-3.4V646.9z M751.6,657.5h3.4v4.7h-3.4V657.5z
	 M751.6,668h3.4v4.7h-3.4V668z M751.6,678.6h3.4v4.7h-3.4V678.6z M751.6,689.1h3.4v4.7h-3.4V689.1z M751.6,699.7h3.4v4.7h-3.4V699.7
	z M751.6,710.2h3.4v4.7h-3.4V710.2z M751.6,720.8h3.4v4.7h-3.4V720.8z M751.6,731.3h3.4v4.7h-3.4V731.3z M751.6,741.9h3.4v4.7h-3.4
	V741.9z M751.6,752.4h3.4v4.7h-3.4V752.4z M751.6,763h3.4v4.7h-3.4V763z M745.7,583.7h3.4v4.7h-3.4V583.7z M745.7,594.2h3.4v4.7
	h-3.4V594.2z M745.7,604.8h3.4v4.7h-3.4V604.8z M745.7,615.3h3.4v4.7h-3.4V615.3z M745.7,625.8h3.4v4.7h-3.4V625.8z M745.7,636.4
	h3.4v4.7h-3.4V636.4z M745.7,646.9h3.4v4.7h-3.4V646.9z M745.7,657.5h3.4v4.7h-3.4V657.5z M745.7,668h3.4v4.7h-3.4V668z
	 M745.7,678.6h3.4v4.7h-3.4V678.6z M745.7,689.1h3.4v4.7h-3.4V689.1z M745.7,699.7h3.4v4.7h-3.4V699.7z M745.7,710.2h3.4v4.7h-3.4
	V710.2z M745.7,720.8h3.4v4.7h-3.4V720.8z M745.7,731.3h3.4v4.7h-3.4V731.3z M745.7,741.9h3.4v4.7h-3.4V741.9z M745.7,752.4h3.4v4.7
	h-3.4V752.4z M745.7,763h3.4v4.7h-3.4V763z M742,583.7h1.2v4.7H742V583.7z M742,594.2h1.2v4.7H742V594.2z M742,604.8h1.2v4.7H742
	V604.8z M742,615.3h1.2v4.7H742V615.3z M742,625.8h1.2v4.7H742V625.8z M742,636.4h1.2v4.7H742V636.4z M742,646.9h1.2v4.7H742V646.9z
	 M742,657.5h1.2v4.7H742V657.5z M742,668h1.2v4.7H742V668z M742,678.6h1.2v4.7H742V678.6z M742,689.1h1.2v4.7H742V689.1z M742,699.7
	h1.2v4.7H742V699.7z M742,710.2h1.2v4.7H742V710.2z M742,720.8h1.2v4.7H742V720.8z M742,731.3h1.2v4.7H742V731.3z M742,741.9h1.2
	v4.7H742V741.9z M742,752.4h1.2v4.7H742V752.4z M742,763h1.2v4.7H742V763z M737.5,583.7h1.3v4.7h-1.3V583.7z M737.5,594.2h1.3v4.7
	h-1.3V594.2z M737.5,604.8h1.3v4.7h-1.3V604.8z M737.5,615.3h1.3v4.7h-1.3V615.3z M737.5,625.8h1.3v4.7h-1.3V625.8z M737.5,636.4
	h1.3v4.7h-1.3V636.4z M737.5,646.9h1.3v4.7h-1.3V646.9z M737.5,657.5h1.3v4.7h-1.3V657.5z M737.5,668h1.3v4.7h-1.3V668z
	 M737.5,678.6h1.3v4.7h-1.3V678.6z M737.5,689.1h1.3v4.7h-1.3V689.1z M737.5,699.7h1.3v4.7h-1.3V699.7z M737.5,710.2h1.3v4.7h-1.3
	V710.2z M737.5,720.8h1.3v4.7h-1.3V720.8z M737.5,731.3h1.3v4.7h-1.3V731.3z M737.5,741.9h1.3v4.7h-1.3V741.9z M737.5,752.4h1.3v4.7
	h-1.3V752.4z M737.5,763h1.3v4.7h-1.3V763z M731.6,583.7h3.4v4.7h-3.4V583.7z M731.6,594.2h3.4v4.7h-3.4V594.2z M731.6,604.8h3.4
	v4.7h-3.4V604.8z M731.6,615.3h3.4v4.7h-3.4V615.3z M731.6,625.8h3.4v4.7h-3.4V625.8z M731.6,636.4h3.4v4.7h-3.4V636.4z
	 M731.6,646.9h3.4v4.7h-3.4V646.9z M731.6,657.5h3.4v4.7h-3.4V657.5z M731.6,668h3.4v4.7h-3.4V668z M731.6,678.6h3.4v4.7h-3.4V678.6
	z M731.6,689.1h3.4v4.7h-3.4V689.1z M731.6,699.7h3.4v4.7h-3.4V699.7z M731.6,710.2h3.4v4.7h-3.4V710.2z M731.6,720.8h3.4v4.7h-3.4
	V720.8z M731.6,731.3h3.4v4.7h-3.4V731.3z M731.6,741.9h3.4v4.7h-3.4V741.9z M731.6,752.4h3.4v4.7h-3.4V752.4z M731.6,763h3.4v4.7
	h-3.4V763z"/>
</svg>
