<svg width="26" height="24" viewBox="0 0 26 24" fill="none" xmlns="http://www.w3.org/2000/svg">
<path d="M1.112 9.728V24H5.72V9.728H1.112ZM0.728 3.648C0.728 5.152 1.912 6.336 3.416 6.336C4.92 6.336 6.104 5.152 6.104 3.648C6.104 2.144 4.92 0.959999 3.416 0.959999C1.912 0.959999 0.728 2.144 0.728 3.648ZM10.9157 24H15.5237V16.672C15.5237 15.744 15.6518 14.72 16.4198 13.952C16.7717 13.568 17.3798 13.184 18.3398 13.184C19.1718 13.184 19.7478 13.472 20.0998 13.824C20.8358 14.56 20.8678 15.744 20.8678 16.672V24H25.4758V14.976C25.4758 13.824 25.3798 12.128 24.0358 10.784C22.8198 9.568 21.1877 9.344 19.9398 9.344C18.5957 9.344 16.9318 9.632 15.5237 11.424V9.728H10.9157V24Z" fill="white"/>
</svg>
